<svg xmlns="http://www.w3.org/2000/svg" width="64" height="70" viewBox="16 138 55 61" aria-hidden="true">
  <path
       id="path4"
       style="fill:#0065bd;fill-opacity:1;stroke:none;stroke-width:0.710692;stroke-dasharray:none;stroke-opacity:1"
       d="m 43.72586,139.85206 a 0.90478543,0.90478543 0 0 0 -0.84336,0.89813 v 3.61942 a 21.561023,21.561023 0 0 0 -7.78143,1.80971 21.778171,21.778171 0 0 0 -5.96243,3.8995 l -2.57866,-2.57865 a 0.90478485,0.90478485 0 0 0 -1.27589,1.27589 l 2.57917,2.57865 a 21.714836,21.714836 0 0 0 -4.23436,6.75876 21.570071,21.570071 0 0 0 -1.5503,6.94325 h -0.0062 -3.6189 a 0.90479056,0.90479056 0 0 0 -0.8816,0.96583 0.90479056,0.90479056 0 0 0 0.8816,0.96635 h 3.6189 0.0062 a 21.570071,21.570071 0 0 0 1.5503,6.94325 21.714836,21.714836 0 0 0 4.23436,6.75876 l -2.57917,2.57865 a 0.90478485,0.90478485 0 0 0 1.27589,1.27589 l 2.57866,-2.57865 a 21.778171,21.778171 0 0 0 5.96243,3.8995 21.561023,21.561023 0 0 0 7.78143,1.80971 v 3.61942 a 0.90478543,0.90478543 0 0 0 0.84336,0.89813 0.90478543,0.90478543 0 0 0 0.96635,-0.89813 v -3.61942 a 21.570071,21.570071 0 0 0 7.06624,-1.56528 21.714836,21.714836 0 0 0 6.75876,-4.23436 l 2.57865,2.57917 a 0.90478485,0.90478485 0 0 0 1.27589,-1.27641 l -2.57865,-2.57814 a 21.778171,21.778171 0 0 0 3.8995,-5.96294 21.561023,21.561023 0 0 0 1.80403,-7.64915 h 0.0057 3.6189 a 0.90479178,0.90479178 0 0 0 0.8816,-0.96635 0.90479178,0.90479178 0 0 0 -0.8816,-0.96583 h -3.6189 -0.0057 a 21.561023,21.561023 0 0 0 -1.80403,-7.64915 21.778171,21.778171 0 0 0 -3.8995,-5.96294 l 2.57865,-2.57814 a 0.90478485,0.90478485 0 0 0 -1.27589,-1.2764 l -2.57865,2.57917 a 21.714836,21.714836 0 0 0 -6.75876,-4.23437 21.570071,21.570071 0 0 0 -7.06624,-1.56528 v -3.61942 a 0.90478543,0.90478543 0 0 0 -0.96635,-0.89813 z m -0.84336,6.32726 v 1.85467 a 17.950931,17.950931 0 0 0 -5.51026,1.14876 l -0.73277,-1.67328 a 19.769549,19.769549 0 0 1 6.24303,-1.33015 z m 1.80971,0 a 19.778597,19.778597 0 0 1 5.49166,1.05833 l -0.02688,0.0181 -0.63303,1.63763 a 17.978075,17.978075 0 0 0 -4.83175,-0.90486 z m 7.14789,1.71876 a 19.968602,19.968602 0 0 1 5.32887,3.49281 l -1.29346,1.29398 a 18.095697,18.095697 0 0 0 -4.69636,-3.0856 z m -16.85634,0.33486 0.73277,1.6738 a 18.095697,18.095697 0 0 0 -4.0535,2.77813 l -1.29346,-1.29398 a 19.986698,19.986698 0 0 1 4.61419,-3.15795 z m 8.80463,1.39526 a 16.579684,16.360538 0 0 1 16.55299,15.42852 h -0.0041 a 16.579684,16.360538 0 0 1 0.03101,0.98702 16.579684,16.360538 0 0 1 -0.03101,0.94516 h 0.0041 A 16.579684,16.360538 0 0 1 43.78839,182.41742 16.579684,16.360538 0 0 1 27.23591,166.9889 h 0.0041 a 16.579684,16.360538 0 0 1 -0.03101,-0.94464 16.579684,16.360538 0 0 1 0.03101,-0.98754 h -0.0041 A 16.579684,16.360538 0 0 1 43.78839,149.6282 Z m 14.69264,3.03806 a 19.986698,19.986698 0 0 1 3.15743,4.61471 l -1.67328,0.73277 a 18.095697,18.095697 0 0 0 -2.77812,-4.0535 z m -29.38787,0.009 1.29398,1.28468 a 18.095697,18.095697 0 0 0 -3.08508,4.70462 l -1.70067,-0.66042 a 19.968602,19.968602 0 0 1 3.49177,-5.32888 z m 33.26929,6.26991 a 19.769549,19.769549 0 0 1 1.32395,6.11125 h -1.80351 -0.05116 a 17.950931,17.950931 0 0 0 -1.14308,-5.37848 z m -37.4034,0.73277 1.69137,0.66042 a 17.978075,17.978075 0 0 0 -0.89866,4.71806 H 25.6913 23.88728 a 19.778597,19.778597 0 0 1 1.05316,-5.36918 z m -1.07177,7.31066 h 1.80402 0.06046 a 17.978075,17.978075 0 0 0 0.89866,4.71806 l -1.69137,0.66042 -0.01861,-0.009 a 19.778597,19.778597 0 0 1 -1.05316,-5.36918 z m 37.94445,0 h 0.05116 1.80351 a 19.769549,19.769549 0 0 1 -1.32395,6.11126 l -1.6738,-0.73278 a 17.950931,17.950931 0 0 0 1.14308,-5.37848 z m -34.52967,6.39186 a 18.095697,18.095697 0 0 0 3.08508,4.70462 l -1.29398,1.28468 a 19.968602,19.968602 0 0 1 -3.49177,-5.32888 z m 32.66312,0.65112 1.67328,0.73277 a 19.986698,19.986698 0 0 1 -3.15743,4.61471 l -1.29397,-1.29398 a 18.095697,18.095697 0 0 0 2.77812,-4.0535 z m -28.30215,5.32888 a 18.095697,18.095697 0 0 0 4.0535,2.77812 l -0.73277,1.6738 a 19.986698,19.986698 0 0 1 -4.61419,-3.15795 z m 24.21248,0 1.29346,1.29397 a 19.968602,19.968602 0 0 1 -5.32887,3.49281 l -0.66095,-1.70118 a 18.095697,18.095697 0 0 0 4.69636,-3.0856 z m -18.50327,3.50211 a 17.950931,17.950931 0 0 0 5.51026,1.14877 v 1.85466 a 19.769549,19.769549 0 0 1 -6.24303,-1.33015 z m 12.15172,0.28939 0.63303,1.63762 0.02688,0.0181 a 19.778597,19.778597 0 0 1 -5.49166,1.05833 v -1.80919 a 17.978075,17.978075 0 0 0 4.83175,-0.90485 z" />
  <path
       d="m 57.66999,193.32146 c 0.005,-3.7e-4 0.01,-3.7e-4 0.0152,0 0.42029,0 0.76105,-0.34078 0.76105,-0.76105 0,-0.11454 -0.0253,-0.22293 -0.0706,-0.32032 L 54.1181,174.49827 c -0.0817,-0.34227 -0.38796,-0.58343 -0.73988,-0.58343 H 34.18079 c -0.35192,0 -0.65813,0.24104 -0.73988,0.58343 l -4.29137,17.88448 c -0.0546,0.22667 -0.002,0.46565 0.14236,0.64885 0.14419,0.18323 0.36454,0.28986 0.59755,0.28986 h 10.50581 v 2.5567 h -3.27537 c -0.4203,0 -0.76107,0.34075 -0.76107,0.76105 0,0.42031 0.34077,0.76105 0.76107,0.76105 4.60336,0 8.6962,0 13.31927,0 0.4203,0 0.76106,-0.34074 0.76106,-0.76105 0,-0.4203 -0.34076,-0.76105 -0.76106,-0.76105 h -3.275 v -2.5567 z m -18.28306,-1.52213 0.49443,-4.43775 h 7.79668 l 0.49452,4.43775 c -1.79389,0 -5.72312,0 -8.78563,0 z m -6.03686,-10.39878 h 5.66418 l -0.49456,4.43891 h -6.23471 z m 7.1954,0 h 6.4683 l 0.49462,4.43891 h -7.45744 z m 0.1696,-1.52209 0.49485,-4.44151 h 5.13929 l 0.49493,4.44151 z m 14.55929,5.961 h -6.2347 L 48.545,181.40055 h 5.66419 z m -5.57054,5.95987 -0.49452,-4.43775 h 6.43031 l 1.06494,4.43775 z m 4.14012,-11.92087 h -5.46853 l -0.49494,-4.44151 h 4.89764 z M 34.781,175.43695 h 4.89764 l -0.49485,4.44151 h -5.46852 z m -2.86126,11.92463 h 6.43035 l -0.49443,4.43776 h -7.00073 z m 13.72233,8.51658 h -3.72466 v -2.5567 h 3.72466 z"
       id="path15"
       style="fill:#0065bd;fill-opacity:1;stroke:none;stroke-width:0.761058;stroke-opacity:1" /><path
       style="fill:#ffffff;fill-opacity:1;stroke:none;stroke-width:0.338206;stroke-dasharray:none;stroke-opacity:1"
       d="m 33.85534,179.70262 c -5.3e-4,-0.0485 0.22104,-1.02742 0.49259,-2.17537 l 0.49372,-2.08717 h 2.3955 2.39551 l -0.0681,0.49975 c -0.10089,0.74017 -0.41434,3.53393 -0.41557,3.70399 -8e-4,0.1132 -0.60917,0.14698 -2.64678,0.14698 -1.45515,0 -2.64623,-0.0397 -2.64685,-0.0882 z"
       id="path16" /><path
       style="fill:#ffffff;fill-opacity:1;stroke:none;stroke-width:0.338206;stroke-dasharray:none;stroke-opacity:1"
       d="m 40.79577,179.70262 c 7.9e-4,-0.0485 0.10599,-0.98774 0.23352,-2.08718 0.12754,-1.09944 0.23263,-2.03867 0.23353,-2.08717 8e-4,-0.0485 1.1393,-0.0882 2.52977,-0.0882 2.20355,0 2.52813,0.0234 2.52813,0.182 0,0.2382 0.33754,3.29305 0.41839,3.78657 l 0.0626,0.38215 h -3.0038 c -1.65209,0 -3.00306,-0.0397 -3.00215,-0.0882 z"
       id="path17" /><path
       style="fill:#ffffff;fill-opacity:1;stroke:none;stroke-width:0.338206;stroke-dasharray:none;stroke-opacity:1"
       d="m 48.38358,179.29106 c -0.10169,-0.74602 -0.41435,-3.53458 -0.41558,-3.70643 -7.9e-4,-0.11699 0.51525,-0.14251 2.37759,-0.11759 l 2.37864,0.0318 0.49887,2.05778 c 0.27438,1.13178 0.50039,2.09746 0.50224,2.14597 0.002,0.0485 -1.18396,0.0882 -2.63514,0.0882 h -2.6385 z"
       id="path18" /><path
       style="fill:#ffffff;fill-opacity:1;stroke:none;stroke-width:0.338206;stroke-dasharray:none;stroke-opacity:1"
       d="m 49.09013,185.64077 c -0.0582,-0.18873 -0.41939,-3.58957 -0.41841,-3.93917 l 7.9e-4,-0.26457 h 2.74204 2.74203 l 0.49384,2.08717 c 0.27161,1.14794 0.49283,2.12686 0.49161,2.17536 -10e-4,0.0485 -1.3532,0.0882 -3.00439,0.0882 -2.29918,0 -3.01276,-0.0344 -3.04745,-0.14698 z"
       id="path19" /><path
       style="fill:#ffffff;fill-opacity:1;stroke:none;stroke-width:0.338206;stroke-dasharray:none;stroke-opacity:1"
       d="m 49.73075,191.6027 c 0,-0.2382 -0.33755,-3.29306 -0.4184,-3.78657 l -0.0626,-0.38216 h 3.17035 3.17035 l 0.42732,1.79321 c 0.23503,0.98626 0.4733,1.96517 0.5295,2.17536 l 0.10217,0.38216 H 53.1901 c -3.04408,0 -3.45934,-0.0219 -3.45934,-0.182 z"
       id="path20" /><path
       style="fill:#ffffff;fill-opacity:1;stroke:none;stroke-width:0.338206;stroke-dasharray:none;stroke-opacity:1"
       d="m 39.50066,191.55083 c 0,-0.3132 0.34862,-3.51757 0.41911,-3.85229 l 0.0557,-0.26457 h 3.81214 3.81213 l 0.0681,0.49975 c 0.1009,0.74018 0.41434,3.53393 0.41558,3.70399 7.9e-4,0.11492 -0.93514,0.14699 -4.29087,0.14699 -4.20553,0 -4.29193,-0.005 -4.29193,-0.23387 z"
       id="path21" /><path
       style="fill:#ffffff;fill-opacity:1;stroke:none;stroke-width:0.338206;stroke-dasharray:none;stroke-opacity:1"
       d="m 40.13,185.58197 c 0.0315,-0.11317 0.14952,-1.09292 0.26228,-2.17721 l 0.20504,-1.97144 3.18439,0.0312 3.18439,0.0312 0.19983,1.76381 c 0.1099,0.97009 0.2028,1.93578 0.20645,2.14596 l 0.007,0.38216 h -3.65312 c -3.42259,0 -3.64952,-0.013 -3.59588,-0.20578 z"
       id="path22" /><path
       style="fill:#ffffff;fill-opacity:1;stroke:none;stroke-width:0.338206;stroke-dasharray:none;stroke-opacity:1"
       d="m 32.36499,185.69956 c 0.0281,-0.0485 0.27396,-1.02742 0.54643,-2.17536 l 0.49541,-2.08717 h 2.75295 c 2.40647,0 2.75294,0.0229 2.75294,0.182 0,0.23819 -0.33754,3.29305 -0.41839,3.78656 l -0.0626,0.38216 h -3.05888 c -1.68238,0 -3.03592,-0.0397 -3.00785,-0.0882 z"
       id="path23" /><path
       style="fill:#ffffff;fill-opacity:1;stroke:none;stroke-width:0.338206;stroke-dasharray:none;stroke-opacity:1"
       d="m 30.96482,191.57892 c 0.0351,-0.11318 0.25208,-0.99949 0.48212,-1.96959 0.23004,-0.97009 0.44655,-1.8564 0.48112,-1.96958 0.0578,-0.18927 0.31478,-0.20578 3.20382,-0.20578 h 3.14095 l -0.23281,2.17536 -0.2328,2.17537 h -3.45313 c -3.23465,0 -3.4491,-0.013 -3.38927,-0.20578 z"
       id="path24" /><path
       d="m 44.00753,161.77218 c 0.45477,0.23565 0.62942,0.79685 0.39378,1.25162 -0.23564,0.45476 -0.79684,0.62941 -1.25161,0.39377 -0.45476,-0.23563 -0.62942,-0.79684 -0.39378,-1.25161 0.23565,-0.45476 0.79685,-0.62941 1.25161,-0.39378 z m 8.6278,5.56155 c 0.061,-0.11369 0.0289,-0.25425 -0.0744,-0.33383 l -5.24404,-3.96875 c -0.22221,-0.1664 -0.49713,-0.24908 -0.77515,-0.22738 l -1.25987,0.0951 c -0.15089,0.0103 -0.28525,0.10026 -0.35761,0.23565 l -0.0207,0.0393 c -0.0982,0.1881 -0.0238,0.41754 0.16433,0.51572 l 7.21307,3.7547 c 0.12712,0.0692 0.28628,0.0196 0.35449,-0.11058 z m -18.77192,-1.55856 c 0.0393,0.12196 0.16433,0.19844 0.29147,0.17777 l 6.50292,-0.98703 c 0.27493,-0.0424 0.52401,-0.18293 0.70385,-0.39378 L 42.174,163.6037 c 0.0982,-0.11679 0.12712,-0.27493 0.0796,-0.42063 l -0.0134,-0.0424 c -0.0661,-0.20154 -0.28318,-0.31007 -0.48368,-0.24392 l -7.72345,2.54559 c -0.14056,0.0444 -0.21497,0.19533 -0.1695,0.33279 z m 11.3792,-13.26541 c -0.12713,-0.0207 -0.25115,0.0527 -0.29353,0.17466 l -2.12701,6.223 c -0.0899,0.26149 -0.0817,0.54983 0.0269,0.80719 l 0.48368,1.16687 c 0.0579,0.14056 0.18501,0.24081 0.33589,0.26458 l 0.0455,0.008 c 0.20877,0.0341 0.40513,-0.10852 0.43926,-0.31729 l 1.30741,-8.02428 c 0.0258,-0.14159 -0.0724,-0.27905 -0.21807,-0.30281 z m -2.08979,22.70045 h 0.83095 c 0.21704,0 0.38862,-0.17777 0.38344,-0.39378 l -0.26768,-10.48305 c -0.005,-0.19017 -0.16123,-0.34108 -0.35139,-0.34108 h -0.36277 c -0.19017,0 -0.34624,0.1509 -0.3514,0.34108 l -0.26768,10.48305 c -0.002,0.21394 0.1695,0.39378 0.38653,0.39378 z"
       id="path25"
       style="fill:#0065bd;fill-opacity:1;stroke:none;stroke-width:0.264583;stroke-opacity:1" />
</svg>
