%TF.GenerationSoftware,KiCad,Pcbnew,9.0.7-9.0.7~ubuntu24.04.1*%
%TF.CreationDate,2026-02-20T17:29:11+01:00*%
%TF.ProjectId,mppt,6d707074-2e6b-4696-9361-645f70636258,rev?*%
%TF.SameCoordinates,Original*%
%TF.FileFunction,Paste,Top*%
%TF.FilePolarity,Positive*%
%FSLAX46Y46*%
G04 Gerber Fmt 4.6, Leading zero omitted, Abs format (unit mm)*
G04 Created by KiCad (PCBNEW 9.0.7-9.0.7~ubuntu24.04.1) date 2026-02-20 17:29:11*
%MOMM*%
%LPD*%
G01*
G04 APERTURE LIST*
G04 Aperture macros list*
%AMRoundRect*
0 Rectangle with rounded corners*
0 $1 Rounding radius*
0 $2 $3 $4 $5 $6 $7 $8 $9 X,Y pos of 4 corners*
0 Add a 4 corners polygon primitive as box body*
4,1,4,$2,$3,$4,$5,$6,$7,$8,$9,$2,$3,0*
0 Add four circle primitives for the rounded corners*
1,1,$1+$1,$2,$3*
1,1,$1+$1,$4,$5*
1,1,$1+$1,$6,$7*
1,1,$1+$1,$8,$9*
0 Add four rect primitives between the rounded corners*
20,1,$1+$1,$2,$3,$4,$5,0*
20,1,$1+$1,$4,$5,$6,$7,0*
20,1,$1+$1,$6,$7,$8,$9,0*
20,1,$1+$1,$8,$9,$2,$3,0*%
G04 Aperture macros list end*
%ADD10RoundRect,0.150000X-0.587500X-0.150000X0.587500X-0.150000X0.587500X0.150000X-0.587500X0.150000X0*%
%ADD11RoundRect,0.249999X0.450001X1.425001X-0.450001X1.425001X-0.450001X-1.425001X0.450001X-1.425001X0*%
%ADD12RoundRect,0.250000X-0.350000X-0.450000X0.350000X-0.450000X0.350000X0.450000X-0.350000X0.450000X0*%
%ADD13RoundRect,0.250000X-0.550000X1.500000X-0.550000X-1.500000X0.550000X-1.500000X0.550000X1.500000X0*%
%ADD14R,1.500000X1.500000*%
%ADD15RoundRect,0.250000X-0.475000X0.337500X-0.475000X-0.337500X0.475000X-0.337500X0.475000X0.337500X0*%
%ADD16RoundRect,0.249998X-1.650002X-2.750002X1.650002X-2.750002X1.650002X2.750002X-1.650002X2.750002X0*%
%ADD17RoundRect,0.250000X-0.337500X-0.475000X0.337500X-0.475000X0.337500X0.475000X-0.337500X0.475000X0*%
%ADD18RoundRect,0.250000X0.350000X0.450000X-0.350000X0.450000X-0.350000X-0.450000X0.350000X-0.450000X0*%
%ADD19RoundRect,0.250000X-0.450000X0.350000X-0.450000X-0.350000X0.450000X-0.350000X0.450000X0.350000X0*%
%ADD20RoundRect,0.250000X-0.650000X1.000000X-0.650000X-1.000000X0.650000X-1.000000X0.650000X1.000000X0*%
%ADD21RoundRect,0.250000X0.337500X0.475000X-0.337500X0.475000X-0.337500X-0.475000X0.337500X-0.475000X0*%
%ADD22RoundRect,0.150000X0.587500X0.150000X-0.587500X0.150000X-0.587500X-0.150000X0.587500X-0.150000X0*%
%ADD23RoundRect,0.250000X0.325000X0.450000X-0.325000X0.450000X-0.325000X-0.450000X0.325000X-0.450000X0*%
%ADD24RoundRect,0.087500X0.087500X-0.725000X0.087500X0.725000X-0.087500X0.725000X-0.087500X-0.725000X0*%
%ADD25RoundRect,0.250001X-0.799999X2.049999X-0.799999X-2.049999X0.799999X-2.049999X0.799999X2.049999X0*%
%ADD26RoundRect,0.250000X1.000000X0.650000X-1.000000X0.650000X-1.000000X-0.650000X1.000000X-0.650000X0*%
G04 APERTURE END LIST*
D10*
%TO.C,Q2*%
X79812500Y-93800000D03*
X79812500Y-95700000D03*
X81687500Y-94750000D03*
%TD*%
D11*
%TO.C,Rshunt1*%
X72000000Y-93500000D03*
X65900000Y-93500000D03*
%TD*%
D12*
%TO.C,R5*%
X117850000Y-133250000D03*
X119850000Y-133250000D03*
%TD*%
D13*
%TO.C,C2*%
X77000000Y-101200000D03*
X77000000Y-106800000D03*
%TD*%
D14*
%TO.C,S1*%
X57500000Y-146900000D03*
X57500000Y-139100000D03*
%TD*%
D15*
%TO.C,C4*%
X77000000Y-118962500D03*
X77000000Y-121037500D03*
%TD*%
D12*
%TO.C,R4*%
X117850000Y-131000000D03*
X119850000Y-131000000D03*
%TD*%
D16*
%TO.C,L1*%
X93750000Y-101415000D03*
X105250000Y-101415000D03*
%TD*%
D17*
%TO.C,C1*%
X67955000Y-101500000D03*
X70030000Y-101500000D03*
%TD*%
D18*
%TO.C,R_Gate1*%
X111000000Y-134000000D03*
X109000000Y-134000000D03*
%TD*%
D19*
%TO.C,R1*%
X67660000Y-96690000D03*
X67660000Y-98690000D03*
%TD*%
D20*
%TO.C,D1*%
X83500000Y-101500000D03*
X83500000Y-105500000D03*
%TD*%
D21*
%TO.C,C3*%
X77537500Y-95750000D03*
X75462500Y-95750000D03*
%TD*%
D22*
%TO.C,Q1*%
X107137500Y-133950000D03*
X107137500Y-132050000D03*
X105262500Y-133000000D03*
%TD*%
D23*
%TO.C,R6*%
X111025000Y-132000000D03*
X108975000Y-132000000D03*
%TD*%
D24*
%TO.C,U1*%
X71250000Y-121612500D03*
X71750000Y-121612500D03*
X72250000Y-121612500D03*
X72750000Y-121612500D03*
X73250000Y-121612500D03*
X73250000Y-117387500D03*
X72750000Y-117387500D03*
X72250000Y-117387500D03*
X71750000Y-117387500D03*
X71250000Y-117387500D03*
%TD*%
D19*
%TO.C,R2*%
X70300000Y-96700000D03*
X70300000Y-98700000D03*
%TD*%
D15*
%TO.C,C6*%
X126250000Y-100675000D03*
X126250000Y-102750000D03*
%TD*%
D18*
%TO.C,R3*%
X77500000Y-93750000D03*
X75500000Y-93750000D03*
%TD*%
D25*
%TO.C,C5*%
X119250000Y-96850000D03*
X119250000Y-105650000D03*
%TD*%
D26*
%TO.C,D2*%
X127500000Y-90500000D03*
X123500000Y-90500000D03*
%TD*%
M02*
