%TF.GenerationSoftware,KiCad,Pcbnew,9.0.7-9.0.7~ubuntu24.04.1*%
%TF.CreationDate,2026-02-20T17:29:11+01:00*%
%TF.ProjectId,mppt,6d707074-2e6b-4696-9361-645f70636258,rev?*%
%TF.SameCoordinates,Original*%
%TF.FileFunction,Soldermask,Bot*%
%TF.FilePolarity,Negative*%
%FSLAX46Y46*%
G04 Gerber Fmt 4.6, Leading zero omitted, Abs format (unit mm)*
G04 Created by KiCad (PCBNEW 9.0.7-9.0.7~ubuntu24.04.1) date 2026-02-20 17:29:11*
%MOMM*%
%LPD*%
G01*
G04 APERTURE LIST*
%ADD10R,1.750000X1.750000*%
%ADD11C,1.750000*%
%ADD12C,2.700000*%
%ADD13R,1.700000X1.700000*%
%ADD14C,1.700000*%
%ADD15C,2.154000*%
%ADD16C,3.200000*%
%ADD17C,2.800000*%
%ADD18R,1.600000X1.600000*%
%ADD19O,1.600000X1.600000*%
G04 APERTURE END LIST*
D10*
%TO.C,RV1*%
X70650000Y-158050000D03*
D11*
X70650000Y-161550000D03*
X129150000Y-158050000D03*
D12*
X74800000Y-164000000D03*
X76000000Y-155600000D03*
X123800000Y-155600000D03*
X125000000Y-164000000D03*
%TD*%
D13*
%TO.C,J1*%
X75355000Y-125540000D03*
D14*
X77895000Y-125540000D03*
X80435000Y-125540000D03*
X82975000Y-125540000D03*
%TD*%
D15*
%TO.C,VOUT2*%
X138250000Y-98750000D03*
X138250000Y-103750000D03*
%TD*%
D16*
%TO.C,H4*%
X138000000Y-79000000D03*
%TD*%
D17*
%TO.C,VIN2*%
X55500000Y-115000000D03*
%TD*%
D16*
%TO.C,H2*%
X54000000Y-163000000D03*
%TD*%
%TO.C,H1*%
X54000000Y-79000000D03*
%TD*%
%TO.C,H3*%
X138000000Y-163000000D03*
%TD*%
D15*
%TO.C,Panel_IN1*%
X54000000Y-103750000D03*
X54000000Y-98750000D03*
%TD*%
D18*
%TO.C,Arduino1*%
X99810000Y-140730000D03*
D19*
X102350000Y-140730000D03*
X104890000Y-140730000D03*
X107430000Y-140730000D03*
X109970000Y-140730000D03*
X112510000Y-140730000D03*
X115050000Y-140730000D03*
X117590000Y-140730000D03*
X120130000Y-140730000D03*
X122670000Y-140730000D03*
X125210000Y-140730000D03*
X127750000Y-140730000D03*
X130290000Y-140730000D03*
X132830000Y-140730000D03*
X135370000Y-140730000D03*
X135370000Y-125490000D03*
X132830000Y-125490000D03*
X130290000Y-125490000D03*
X127750000Y-125490000D03*
X125210000Y-125490000D03*
X122670000Y-125490000D03*
X120130000Y-125490000D03*
X117590000Y-125490000D03*
X115050000Y-125490000D03*
X112510000Y-125490000D03*
X109970000Y-125490000D03*
X107430000Y-125490000D03*
X104890000Y-125490000D03*
X102350000Y-125490000D03*
X99810000Y-125490000D03*
%TD*%
D17*
%TO.C,VOUTlow1*%
X136500000Y-115000000D03*
%TD*%
%TO.C,VIN1*%
X55500000Y-87000000D03*
%TD*%
%TO.C,VOUT1*%
X136500000Y-87000000D03*
%TD*%
M02*
