%TF.GenerationSoftware,KiCad,Pcbnew,9.0.7-9.0.7~ubuntu24.04.1*%
%TF.CreationDate,2026-02-20T17:29:11+01:00*%
%TF.ProjectId,mppt,6d707074-2e6b-4696-9361-645f70636258,rev?*%
%TF.SameCoordinates,Original*%
%TF.FileFunction,Copper,L1,Top*%
%TF.FilePolarity,Positive*%
%FSLAX46Y46*%
G04 Gerber Fmt 4.6, Leading zero omitted, Abs format (unit mm)*
G04 Created by KiCad (PCBNEW 9.0.7-9.0.7~ubuntu24.04.1) date 2026-02-20 17:29:11*
%MOMM*%
%LPD*%
G01*
G04 APERTURE LIST*
G04 Aperture macros list*
%AMRoundRect*
0 Rectangle with rounded corners*
0 $1 Rounding radius*
0 $2 $3 $4 $5 $6 $7 $8 $9 X,Y pos of 4 corners*
0 Add a 4 corners polygon primitive as box body*
4,1,4,$2,$3,$4,$5,$6,$7,$8,$9,$2,$3,0*
0 Add four circle primitives for the rounded corners*
1,1,$1+$1,$2,$3*
1,1,$1+$1,$4,$5*
1,1,$1+$1,$6,$7*
1,1,$1+$1,$8,$9*
0 Add four rect primitives between the rounded corners*
20,1,$1+$1,$2,$3,$4,$5,0*
20,1,$1+$1,$4,$5,$6,$7,0*
20,1,$1+$1,$6,$7,$8,$9,0*
20,1,$1+$1,$8,$9,$2,$3,0*%
G04 Aperture macros list end*
%TA.AperFunction,ComponentPad*%
%ADD10R,1.750000X1.750000*%
%TD*%
%TA.AperFunction,ComponentPad*%
%ADD11C,1.750000*%
%TD*%
%TA.AperFunction,ComponentPad*%
%ADD12C,2.700000*%
%TD*%
%TA.AperFunction,SMDPad,CuDef*%
%ADD13RoundRect,0.150000X-0.587500X-0.150000X0.587500X-0.150000X0.587500X0.150000X-0.587500X0.150000X0*%
%TD*%
%TA.AperFunction,SMDPad,CuDef*%
%ADD14RoundRect,0.249999X0.450001X1.425001X-0.450001X1.425001X-0.450001X-1.425001X0.450001X-1.425001X0*%
%TD*%
%TA.AperFunction,ComponentPad*%
%ADD15R,1.700000X1.700000*%
%TD*%
%TA.AperFunction,ComponentPad*%
%ADD16C,1.700000*%
%TD*%
%TA.AperFunction,SMDPad,CuDef*%
%ADD17RoundRect,0.250000X-0.350000X-0.450000X0.350000X-0.450000X0.350000X0.450000X-0.350000X0.450000X0*%
%TD*%
%TA.AperFunction,SMDPad,CuDef*%
%ADD18RoundRect,0.250000X-0.550000X1.500000X-0.550000X-1.500000X0.550000X-1.500000X0.550000X1.500000X0*%
%TD*%
%TA.AperFunction,SMDPad,CuDef*%
%ADD19R,1.500000X1.500000*%
%TD*%
%TA.AperFunction,SMDPad,CuDef*%
%ADD20RoundRect,0.250000X-0.475000X0.337500X-0.475000X-0.337500X0.475000X-0.337500X0.475000X0.337500X0*%
%TD*%
%TA.AperFunction,ComponentPad*%
%ADD21C,1.950000*%
%TD*%
%TA.AperFunction,SMDPad,CuDef*%
%ADD22RoundRect,0.249998X-1.650002X-2.750002X1.650002X-2.750002X1.650002X2.750002X-1.650002X2.750002X0*%
%TD*%
%TA.AperFunction,ComponentPad*%
%ADD23C,2.800000*%
%TD*%
%TA.AperFunction,SMDPad,CuDef*%
%ADD24RoundRect,0.250000X-0.337500X-0.475000X0.337500X-0.475000X0.337500X0.475000X-0.337500X0.475000X0*%
%TD*%
%TA.AperFunction,SMDPad,CuDef*%
%ADD25RoundRect,0.250000X0.350000X0.450000X-0.350000X0.450000X-0.350000X-0.450000X0.350000X-0.450000X0*%
%TD*%
%TA.AperFunction,SMDPad,CuDef*%
%ADD26RoundRect,0.250000X-0.450000X0.350000X-0.450000X-0.350000X0.450000X-0.350000X0.450000X0.350000X0*%
%TD*%
%TA.AperFunction,SMDPad,CuDef*%
%ADD27RoundRect,0.250000X-0.650000X1.000000X-0.650000X-1.000000X0.650000X-1.000000X0.650000X1.000000X0*%
%TD*%
%TA.AperFunction,ComponentPad*%
%ADD28R,1.600000X1.600000*%
%TD*%
%TA.AperFunction,ComponentPad*%
%ADD29O,1.600000X1.600000*%
%TD*%
%TA.AperFunction,SMDPad,CuDef*%
%ADD30RoundRect,0.250000X0.337500X0.475000X-0.337500X0.475000X-0.337500X-0.475000X0.337500X-0.475000X0*%
%TD*%
%TA.AperFunction,SMDPad,CuDef*%
%ADD31RoundRect,0.150000X0.587500X0.150000X-0.587500X0.150000X-0.587500X-0.150000X0.587500X-0.150000X0*%
%TD*%
%TA.AperFunction,SMDPad,CuDef*%
%ADD32RoundRect,0.250000X0.325000X0.450000X-0.325000X0.450000X-0.325000X-0.450000X0.325000X-0.450000X0*%
%TD*%
%TA.AperFunction,SMDPad,CuDef*%
%ADD33RoundRect,0.087500X0.087500X-0.725000X0.087500X0.725000X-0.087500X0.725000X-0.087500X-0.725000X0*%
%TD*%
%TA.AperFunction,SMDPad,CuDef*%
%ADD34RoundRect,0.250001X-0.799999X2.049999X-0.799999X-2.049999X0.799999X-2.049999X0.799999X2.049999X0*%
%TD*%
%TA.AperFunction,SMDPad,CuDef*%
%ADD35RoundRect,0.250000X1.000000X0.650000X-1.000000X0.650000X-1.000000X-0.650000X1.000000X-0.650000X0*%
%TD*%
%TA.AperFunction,ViaPad*%
%ADD36C,0.600000*%
%TD*%
%TA.AperFunction,Conductor*%
%ADD37C,0.300000*%
%TD*%
%TA.AperFunction,Conductor*%
%ADD38C,0.400000*%
%TD*%
%TA.AperFunction,Conductor*%
%ADD39C,0.200000*%
%TD*%
%TA.AperFunction,Conductor*%
%ADD40C,1.000000*%
%TD*%
%TA.AperFunction,Conductor*%
%ADD41C,0.500000*%
%TD*%
G04 APERTURE END LIST*
D10*
%TO.P,RV1,1,1*%
%TO.N,GND*%
X70650000Y-158050000D03*
D11*
%TO.P,RV1,2,2*%
%TO.N,Poti*%
X70650000Y-161550000D03*
%TO.P,RV1,3,3*%
%TO.N,+5V*%
X129150000Y-158050000D03*
D12*
%TO.P,RV1,MP*%
%TO.N,N/C*%
X74800000Y-164000000D03*
X76000000Y-155600000D03*
X123800000Y-155600000D03*
X125000000Y-164000000D03*
%TD*%
D13*
%TO.P,Q2,1,G*%
%TO.N,PGate*%
X79812500Y-93800000D03*
%TO.P,Q2,2,S*%
%TO.N,Net-(Q2-S)*%
X79812500Y-95700000D03*
%TO.P,Q2,3,D*%
%TO.N,Net-(D1-K)*%
X81687500Y-94750000D03*
%TD*%
D14*
%TO.P,Rshunt1,1*%
%TO.N,Net-(Q2-S)*%
X72000000Y-93500000D03*
%TO.P,Rshunt1,2*%
%TO.N,Net-(U1-Vbus)*%
X65900000Y-93500000D03*
%TD*%
D15*
%TO.P,J1,1,Pin_1*%
%TO.N,GND*%
X75355000Y-125540000D03*
D16*
%TO.P,J1,2,Pin_2*%
%TO.N,+3V3*%
X77895000Y-125540000D03*
%TO.P,J1,3,Pin_3*%
%TO.N,SCL*%
X80435000Y-125540000D03*
%TO.P,J1,4,Pin_4*%
%TO.N,SDA*%
X82975000Y-125540000D03*
%TD*%
D17*
%TO.P,R5,1*%
%TO.N,SCL*%
X117850000Y-133250000D03*
%TO.P,R5,2*%
%TO.N,+3V3*%
X119850000Y-133250000D03*
%TD*%
D18*
%TO.P,C2,1*%
%TO.N,Net-(Q2-S)*%
X77000000Y-101200000D03*
%TO.P,C2,2*%
%TO.N,GND*%
X77000000Y-106800000D03*
%TD*%
D19*
%TO.P,S1,1,K*%
%TO.N,GND*%
X57500000Y-146900000D03*
%TO.P,S1,2,A*%
%TO.N,Button*%
X57500000Y-139100000D03*
%TD*%
D20*
%TO.P,C4,1*%
%TO.N,+3V3*%
X77000000Y-118962500D03*
%TO.P,C4,2*%
%TO.N,GND*%
X77000000Y-121037500D03*
%TD*%
D17*
%TO.P,R4,1*%
%TO.N,SDA*%
X117850000Y-131000000D03*
%TO.P,R4,2*%
%TO.N,+3V3*%
X119850000Y-131000000D03*
%TD*%
D21*
%TO.P,VOUT2,1*%
%TO.N,Net-(D2-K)*%
X138250000Y-98750000D03*
%TO.P,VOUT2,2*%
%TO.N,GND*%
X138250000Y-103750000D03*
%TD*%
D22*
%TO.P,L1,1,1*%
%TO.N,Net-(D1-K)*%
X93750000Y-101415000D03*
%TO.P,L1,2,2*%
%TO.N,Net-(D2-A)*%
X105250000Y-101415000D03*
%TD*%
D23*
%TO.P,VIN2,1,1*%
%TO.N,GND*%
X55500000Y-115000000D03*
%TD*%
D24*
%TO.P,C1,1*%
%TO.N,Net-(U1-Vin+)*%
X67955000Y-101500000D03*
%TO.P,C1,2*%
%TO.N,Net-(U1-Vin-)*%
X70030000Y-101500000D03*
%TD*%
D25*
%TO.P,R_Gate1,1*%
%TO.N,GatePWM*%
X111000000Y-134000000D03*
%TO.P,R_Gate1,2*%
%TO.N,Net-(Q1-B)*%
X109000000Y-134000000D03*
%TD*%
D26*
%TO.P,R1,1*%
%TO.N,Net-(U1-Vbus)*%
X67660000Y-96690000D03*
%TO.P,R1,2*%
%TO.N,Net-(U1-Vin+)*%
X67660000Y-98690000D03*
%TD*%
D21*
%TO.P,Panel_IN1,1*%
%TO.N,GND*%
X54000000Y-103750000D03*
%TO.P,Panel_IN1,2*%
%TO.N,Net-(U1-Vbus)*%
X54000000Y-98750000D03*
%TD*%
D27*
%TO.P,D1,1,K*%
%TO.N,Net-(D1-K)*%
X83500000Y-101500000D03*
%TO.P,D1,2,A*%
%TO.N,GND*%
X83500000Y-105500000D03*
%TD*%
D28*
%TO.P,Arduino1,1,D1/TX*%
%TO.N,unconnected-(Arduino1-D1{slash}TX-Pad1)*%
X99810000Y-140730000D03*
D29*
%TO.P,Arduino1,2,D0/RX*%
%TO.N,unconnected-(Arduino1-D0{slash}RX-Pad2)*%
X102350000Y-140730000D03*
%TO.P,Arduino1,3,~{RESET}*%
%TO.N,unconnected-(Arduino1-~{RESET}-Pad3)*%
X104890000Y-140730000D03*
%TO.P,Arduino1,4,GND*%
%TO.N,GND*%
X107430000Y-140730000D03*
%TO.P,Arduino1,5,D2*%
%TO.N,unconnected-(Arduino1-D2-Pad5)*%
X109970000Y-140730000D03*
%TO.P,Arduino1,6,D3*%
%TO.N,Button*%
X112510000Y-140730000D03*
%TO.P,Arduino1,7,D4*%
%TO.N,unconnected-(Arduino1-D4-Pad7)*%
X115050000Y-140730000D03*
%TO.P,Arduino1,8,D5*%
%TO.N,GatePWM*%
X117590000Y-140730000D03*
%TO.P,Arduino1,9,D6*%
%TO.N,unconnected-(Arduino1-D6-Pad9)*%
X120130000Y-140730000D03*
%TO.P,Arduino1,10,D7*%
%TO.N,unconnected-(Arduino1-D7-Pad10)*%
X122670000Y-140730000D03*
%TO.P,Arduino1,11,D8*%
%TO.N,unconnected-(Arduino1-D8-Pad11)*%
X125210000Y-140730000D03*
%TO.P,Arduino1,12,D9*%
%TO.N,unconnected-(Arduino1-D9-Pad12)*%
X127750000Y-140730000D03*
%TO.P,Arduino1,13,D10*%
%TO.N,unconnected-(Arduino1-D10-Pad13)*%
X130290000Y-140730000D03*
%TO.P,Arduino1,14,D11*%
%TO.N,unconnected-(Arduino1-D11-Pad14)*%
X132830000Y-140730000D03*
%TO.P,Arduino1,15,D12*%
%TO.N,unconnected-(Arduino1-D12-Pad15)*%
X135370000Y-140730000D03*
%TO.P,Arduino1,16,D13*%
%TO.N,unconnected-(Arduino1-D13-Pad16)*%
X135370000Y-125490000D03*
%TO.P,Arduino1,17,3V3*%
%TO.N,+3V3*%
X132830000Y-125490000D03*
%TO.P,Arduino1,18,AREF*%
%TO.N,unconnected-(Arduino1-AREF-Pad18)*%
X130290000Y-125490000D03*
%TO.P,Arduino1,19,A0*%
%TO.N,unconnected-(Arduino1-A0-Pad19)*%
X127750000Y-125490000D03*
%TO.P,Arduino1,20,A1*%
%TO.N,unconnected-(Arduino1-A1-Pad20)*%
X125210000Y-125490000D03*
%TO.P,Arduino1,21,A2*%
%TO.N,unconnected-(Arduino1-A2-Pad21)*%
X122670000Y-125490000D03*
%TO.P,Arduino1,22,A3*%
%TO.N,unconnected-(Arduino1-A3-Pad22)*%
X120130000Y-125490000D03*
%TO.P,Arduino1,23,A4*%
%TO.N,SDA*%
X117590000Y-125490000D03*
%TO.P,Arduino1,24,A5*%
%TO.N,SCL*%
X115050000Y-125490000D03*
%TO.P,Arduino1,25,A6*%
%TO.N,unconnected-(Arduino1-A6-Pad25)*%
X112510000Y-125490000D03*
%TO.P,Arduino1,26,A7*%
%TO.N,Poti*%
X109970000Y-125490000D03*
%TO.P,Arduino1,27,+5V*%
%TO.N,+5V*%
X107430000Y-125490000D03*
%TO.P,Arduino1,28,~{RESET}*%
%TO.N,unconnected-(Arduino1-~{RESET}-Pad28)*%
X104890000Y-125490000D03*
%TO.P,Arduino1,29,GND*%
%TO.N,GND*%
X102350000Y-125490000D03*
%TO.P,Arduino1,30,VIN*%
%TO.N,unconnected-(Arduino1-VIN-Pad30)*%
X99810000Y-125490000D03*
%TD*%
D30*
%TO.P,C3,1*%
%TO.N,Net-(Q2-S)*%
X77537500Y-95750000D03*
%TO.P,C3,2*%
%TO.N,GND*%
X75462500Y-95750000D03*
%TD*%
D23*
%TO.P,VOUTlow1,1,1*%
%TO.N,GND*%
X136500000Y-115000000D03*
%TD*%
%TO.P,VIN1,1,1*%
%TO.N,Net-(U1-Vbus)*%
X55500000Y-87000000D03*
%TD*%
%TO.P,VOUT1,1,1*%
%TO.N,Net-(D2-K)*%
X136500000Y-87000000D03*
%TD*%
D31*
%TO.P,Q1,1,B*%
%TO.N,Net-(Q1-B)*%
X107137500Y-133950000D03*
%TO.P,Q1,2,E*%
%TO.N,GND*%
X107137500Y-132050000D03*
%TO.P,Q1,3,C*%
%TO.N,PGate*%
X105262500Y-133000000D03*
%TD*%
D32*
%TO.P,R6,1*%
%TO.N,GatePWM*%
X111025000Y-132000000D03*
%TO.P,R6,2*%
%TO.N,GND*%
X108975000Y-132000000D03*
%TD*%
D33*
%TO.P,U1,1,A1*%
%TO.N,GND*%
X71250000Y-121612500D03*
%TO.P,U1,2,A0*%
X71750000Y-121612500D03*
%TO.P,U1,3,~{Alert}*%
%TO.N,unconnected-(U1-~{Alert}-Pad3)*%
X72250000Y-121612500D03*
%TO.P,U1,4,SDA*%
%TO.N,SDA*%
X72750000Y-121612500D03*
%TO.P,U1,5,SCL*%
%TO.N,SCL*%
X73250000Y-121612500D03*
%TO.P,U1,6,VS*%
%TO.N,+3V3*%
X73250000Y-117387500D03*
%TO.P,U1,7,GND*%
%TO.N,GND*%
X72750000Y-117387500D03*
%TO.P,U1,8,Vbus*%
%TO.N,Net-(U1-Vbus)*%
X72250000Y-117387500D03*
%TO.P,U1,9,Vin-*%
%TO.N,Net-(U1-Vin-)*%
X71750000Y-117387500D03*
%TO.P,U1,10,Vin+*%
%TO.N,Net-(U1-Vin+)*%
X71250000Y-117387500D03*
%TD*%
D26*
%TO.P,R2,1*%
%TO.N,Net-(Q2-S)*%
X70300000Y-96700000D03*
%TO.P,R2,2*%
%TO.N,Net-(U1-Vin-)*%
X70300000Y-98700000D03*
%TD*%
D20*
%TO.P,C6,1*%
%TO.N,Net-(D2-A)*%
X126250000Y-100675000D03*
%TO.P,C6,2*%
%TO.N,GND*%
X126250000Y-102750000D03*
%TD*%
D25*
%TO.P,R3,1*%
%TO.N,PGate*%
X77500000Y-93750000D03*
%TO.P,R3,2*%
%TO.N,Net-(U1-Vbus)*%
X75500000Y-93750000D03*
%TD*%
D34*
%TO.P,C5,1*%
%TO.N,Net-(D2-A)*%
X119250000Y-96850000D03*
%TO.P,C5,2*%
%TO.N,GND*%
X119250000Y-105650000D03*
%TD*%
D35*
%TO.P,D2,1,K*%
%TO.N,Net-(D2-K)*%
X127500000Y-90500000D03*
%TO.P,D2,2,A*%
%TO.N,Net-(D2-A)*%
X123500000Y-90500000D03*
%TD*%
D36*
%TO.N,GND*%
X72750000Y-119870466D03*
X75500000Y-97250000D03*
X83500000Y-108000000D03*
X77000000Y-109750000D03*
X107750000Y-131250000D03*
X119250000Y-109000000D03*
X126250000Y-104000000D03*
X57500000Y-149500000D03*
%TO.N,SCL*%
X115010000Y-122940000D03*
%TD*%
D37*
%TO.N,+3V3*%
X73250000Y-118500000D02*
X73712500Y-118962500D01*
X78362500Y-118962500D02*
X79600000Y-120200000D01*
X73712500Y-118962500D02*
X77000000Y-118962500D01*
X73250000Y-117300000D02*
X73250000Y-118500000D01*
X77000000Y-118962500D02*
X78362500Y-118962500D01*
%TO.N,GatePWM*%
X117590000Y-140730000D02*
X111000000Y-134140000D01*
X111000000Y-134140000D02*
X111000000Y-134000000D01*
D38*
X111060000Y-134060000D02*
X111000000Y-134000000D01*
D39*
X111025000Y-133975000D02*
X111000000Y-134000000D01*
X111025000Y-132000000D02*
X111025000Y-133975000D01*
D37*
%TO.N,GND*%
X77000000Y-106800000D02*
X77000000Y-109750000D01*
X107137500Y-132050000D02*
X107137500Y-131862500D01*
X126250000Y-102750000D02*
X126250000Y-104000000D01*
X75832966Y-119870466D02*
X77000000Y-121037500D01*
D39*
X57500000Y-149500000D02*
X57500000Y-146900000D01*
D37*
X75462500Y-97212500D02*
X75500000Y-97250000D01*
X72750000Y-117300000D02*
X72750000Y-119870466D01*
X108925000Y-132050000D02*
X108975000Y-132000000D01*
X75462500Y-95750000D02*
X75462500Y-97212500D01*
X107137500Y-132050000D02*
X108925000Y-132050000D01*
X71250000Y-121370466D02*
X71250000Y-121612500D01*
X107137500Y-131862500D02*
X107750000Y-131250000D01*
X119250000Y-105650000D02*
X119250000Y-109000000D01*
X83500000Y-106000000D02*
X83500000Y-108000000D01*
D39*
X71250000Y-121612500D02*
X71250000Y-120800001D01*
D37*
X72750000Y-119870466D02*
X75832966Y-119870466D01*
D39*
X71250000Y-120800001D02*
X72179535Y-119870466D01*
D37*
X71250000Y-121612500D02*
X71750000Y-121612500D01*
D39*
X72179535Y-119870466D02*
X72750000Y-119870466D01*
%TO.N,SCL*%
X73250000Y-121700000D02*
X74510000Y-122960000D01*
X115060000Y-125480000D02*
X115050000Y-125490000D01*
D37*
X117850000Y-133250000D02*
X117250000Y-133250000D01*
D39*
X74510000Y-122960000D02*
X77855000Y-122960000D01*
D37*
X117250000Y-133250000D02*
X115050000Y-131050000D01*
X115050000Y-131050000D02*
X115050000Y-125490000D01*
D39*
X115060000Y-122990000D02*
X115060000Y-125480000D01*
X115010000Y-122940000D02*
X115060000Y-122990000D01*
X77855000Y-122960000D02*
X80435000Y-125540000D01*
%TO.N,SDA*%
X72750000Y-121612500D02*
X72770400Y-121632900D01*
X73726000Y-121608900D02*
X74676100Y-122559000D01*
X72750000Y-121700000D02*
X72750000Y-121612500D01*
X72774000Y-120724152D02*
X72999152Y-120499000D01*
X72999152Y-120499000D02*
X73500848Y-120499000D01*
X73500848Y-120499000D02*
X73726000Y-120724152D01*
X73726000Y-120724152D02*
X73726000Y-121608900D01*
X74676100Y-122559000D02*
X79994000Y-122559000D01*
D37*
X117850000Y-125750000D02*
X117590000Y-125490000D01*
X117850000Y-131000000D02*
X117850000Y-125750000D01*
D39*
X72770400Y-121632900D02*
X72774000Y-121632900D01*
X72774000Y-121632900D02*
X72774000Y-120724152D01*
X79994000Y-122559000D02*
X82975000Y-125540000D01*
D37*
%TO.N,Net-(U1-Vin-)*%
X70300000Y-101230000D02*
X70030000Y-101500000D01*
X70300000Y-98700000D02*
X70300000Y-101230000D01*
X70030000Y-114220000D02*
X70030000Y-101500000D01*
X70031357Y-114218643D02*
X70030000Y-114220000D01*
X71750000Y-117300000D02*
X71750000Y-115937286D01*
X71750000Y-115937286D02*
X70031357Y-114218643D01*
%TO.N,Net-(U1-Vin+)*%
X67660000Y-98690000D02*
X67660000Y-101205000D01*
X67955000Y-112955000D02*
X71250000Y-116250000D01*
X67660000Y-101205000D02*
X67955000Y-101500000D01*
X67955000Y-101500000D02*
X67955000Y-112955000D01*
X71250000Y-116250000D02*
X71250000Y-117300000D01*
D40*
%TO.N,Net-(D1-K)*%
X93165000Y-102000000D02*
X93750000Y-101415000D01*
D41*
X81950000Y-94750000D02*
X83000000Y-94750000D01*
X83500000Y-95250000D02*
X83500000Y-102000000D01*
X83000000Y-94750000D02*
X83500000Y-95250000D01*
D40*
X83500000Y-102000000D02*
X93165000Y-102000000D01*
%TO.N,Net-(D2-A)*%
X121750000Y-90750000D02*
X123500000Y-90750000D01*
D38*
X126250000Y-100675000D02*
X123075000Y-100675000D01*
D40*
X109815000Y-96850000D02*
X119250000Y-96850000D01*
X105250000Y-101415000D02*
X109815000Y-96850000D01*
X119250000Y-96850000D02*
X119250000Y-93250000D01*
D38*
X123075000Y-100675000D02*
X119250000Y-96850000D01*
D40*
X119250000Y-93250000D02*
X121750000Y-90750000D01*
%TO.N,Net-(D2-K)*%
X136500000Y-90750000D02*
X136500000Y-87000000D01*
X127500000Y-90750000D02*
X136500000Y-90750000D01*
X136500000Y-90750000D02*
X138250000Y-90750000D01*
X138250000Y-90750000D02*
X138250000Y-98750000D01*
D39*
%TO.N,Net-(U1-Vbus)*%
X66609000Y-114110848D02*
X66609000Y-113988534D01*
D40*
X65900000Y-93500000D02*
X68276000Y-91124000D01*
D39*
X72250000Y-117387500D02*
X72250000Y-118251848D01*
D37*
X66609000Y-97741000D02*
X67660000Y-96690000D01*
X67660000Y-92850000D02*
X67330000Y-92520000D01*
D39*
X72250000Y-118251848D02*
X72000848Y-118501000D01*
D37*
X67330000Y-92520000D02*
X65900000Y-92520000D01*
D40*
X56500000Y-87000000D02*
X59000000Y-89500000D01*
X59250000Y-93500000D02*
X65900000Y-93500000D01*
D39*
X70999152Y-118501000D02*
X66609000Y-114110848D01*
D40*
X72874000Y-91124000D02*
X75500000Y-93750000D01*
D39*
X72000848Y-118501000D02*
X70999152Y-118501000D01*
D37*
X67660000Y-96690000D02*
X67660000Y-92850000D01*
D40*
X59000000Y-89500000D02*
X59000000Y-93250000D01*
X68276000Y-91124000D02*
X72874000Y-91124000D01*
D37*
X66609000Y-113988534D02*
X66609000Y-97741000D01*
D40*
X54000000Y-98750000D02*
X59250000Y-93500000D01*
D37*
%TO.N,Button*%
X57500000Y-139100000D02*
X60281000Y-141881000D01*
X60281000Y-141881000D02*
X111359000Y-141881000D01*
X111359000Y-141881000D02*
X112510000Y-140730000D01*
D41*
%TO.N,+5V*%
X136000000Y-137800000D02*
X138000000Y-139800000D01*
X138000000Y-139800000D02*
X138000000Y-149230000D01*
X107430000Y-125490000D02*
X119740000Y-137800000D01*
X128980000Y-158250000D02*
X138000000Y-149230000D01*
X119740000Y-137800000D02*
X136000000Y-137800000D01*
D37*
%TO.N,Net-(Q2-S)*%
X70600000Y-92520000D02*
X72000000Y-92520000D01*
X70300000Y-96700000D02*
X70300000Y-92820000D01*
D40*
X72000000Y-93500000D02*
X72000000Y-96200000D01*
D41*
X77537500Y-95750000D02*
X77537500Y-100662500D01*
D37*
X79505000Y-95750000D02*
X79550000Y-95705000D01*
D41*
X77537500Y-95750000D02*
X79505000Y-95750000D01*
D37*
X70300000Y-92820000D02*
X70600000Y-92520000D01*
X77537500Y-100662500D02*
X77000000Y-101200000D01*
D40*
X72000000Y-96200000D02*
X77000000Y-101200000D01*
D37*
%TO.N,PGate*%
X103739000Y-131476500D02*
X105262500Y-133000000D01*
X79550000Y-93795000D02*
X93545000Y-93795000D01*
X93545000Y-93795000D02*
X97540000Y-97790000D01*
X97540000Y-119040000D02*
X103739000Y-125239000D01*
X79505000Y-93750000D02*
X79550000Y-93795000D01*
X97540000Y-97790000D02*
X97540000Y-119040000D01*
X103739000Y-125239000D02*
X103739000Y-131476500D01*
X77500000Y-93750000D02*
X79505000Y-93750000D01*
D38*
%TO.N,Net-(Q1-B)*%
X108950000Y-133950000D02*
X107137500Y-133950000D01*
X109000000Y-134000000D02*
X108950000Y-133950000D01*
%TD*%
%TA.AperFunction,Conductor*%
%TO.N,+3V3*%
G36*
X141442256Y-119021200D02*
G01*
X141488154Y-119073879D01*
X141499500Y-119125697D01*
X141499500Y-166555500D01*
X141479815Y-166622539D01*
X141427011Y-166668294D01*
X141375500Y-166679500D01*
X50624500Y-166679500D01*
X50557461Y-166659815D01*
X50511706Y-166607011D01*
X50500500Y-166555500D01*
X50500500Y-162878711D01*
X52149500Y-162878711D01*
X52149500Y-163121288D01*
X52181161Y-163361785D01*
X52243947Y-163596104D01*
X52261390Y-163638214D01*
X52336776Y-163820212D01*
X52458064Y-164030289D01*
X52458066Y-164030292D01*
X52458067Y-164030293D01*
X52605733Y-164222736D01*
X52605739Y-164222743D01*
X52777256Y-164394260D01*
X52777262Y-164394265D01*
X52969711Y-164541936D01*
X53179788Y-164663224D01*
X53403900Y-164756054D01*
X53638211Y-164818838D01*
X53818586Y-164842584D01*
X53878711Y-164850500D01*
X53878712Y-164850500D01*
X54121289Y-164850500D01*
X54169388Y-164844167D01*
X54361789Y-164818838D01*
X54596100Y-164756054D01*
X54820212Y-164663224D01*
X55030289Y-164541936D01*
X55222738Y-164394265D01*
X55394265Y-164222738D01*
X55541936Y-164030289D01*
X55629450Y-163878711D01*
X72949500Y-163878711D01*
X72949500Y-164121288D01*
X72981161Y-164361785D01*
X73043947Y-164596104D01*
X73071750Y-164663226D01*
X73136776Y-164820212D01*
X73258064Y-165030289D01*
X73258066Y-165030292D01*
X73258067Y-165030293D01*
X73405733Y-165222736D01*
X73405739Y-165222743D01*
X73577256Y-165394260D01*
X73577262Y-165394265D01*
X73769711Y-165541936D01*
X73979788Y-165663224D01*
X74203900Y-165756054D01*
X74438211Y-165818838D01*
X74618586Y-165842584D01*
X74678711Y-165850500D01*
X74678712Y-165850500D01*
X74921289Y-165850500D01*
X74969388Y-165844167D01*
X75161789Y-165818838D01*
X75396100Y-165756054D01*
X75620212Y-165663224D01*
X75830289Y-165541936D01*
X76022738Y-165394265D01*
X76194265Y-165222738D01*
X76341936Y-165030289D01*
X76463224Y-164820212D01*
X76556054Y-164596100D01*
X76618838Y-164361789D01*
X76650500Y-164121288D01*
X76650500Y-163878712D01*
X76650500Y-163878711D01*
X123149500Y-163878711D01*
X123149500Y-164121288D01*
X123181161Y-164361785D01*
X123243947Y-164596104D01*
X123271750Y-164663226D01*
X123336776Y-164820212D01*
X123458064Y-165030289D01*
X123458066Y-165030292D01*
X123458067Y-165030293D01*
X123605733Y-165222736D01*
X123605739Y-165222743D01*
X123777256Y-165394260D01*
X123777262Y-165394265D01*
X123969711Y-165541936D01*
X124179788Y-165663224D01*
X124403900Y-165756054D01*
X124638211Y-165818838D01*
X124818586Y-165842584D01*
X124878711Y-165850500D01*
X124878712Y-165850500D01*
X125121289Y-165850500D01*
X125169388Y-165844167D01*
X125361789Y-165818838D01*
X125596100Y-165756054D01*
X125820212Y-165663224D01*
X126030289Y-165541936D01*
X126222738Y-165394265D01*
X126394265Y-165222738D01*
X126541936Y-165030289D01*
X126663224Y-164820212D01*
X126756054Y-164596100D01*
X126818838Y-164361789D01*
X126850500Y-164121288D01*
X126850500Y-163878712D01*
X126818838Y-163638211D01*
X126756054Y-163403900D01*
X126663224Y-163179788D01*
X126541936Y-162969711D01*
X126526917Y-162950138D01*
X126526917Y-162950137D01*
X126472110Y-162878711D01*
X136149500Y-162878711D01*
X136149500Y-163121288D01*
X136181161Y-163361785D01*
X136243947Y-163596104D01*
X136261390Y-163638214D01*
X136336776Y-163820212D01*
X136458064Y-164030289D01*
X136458066Y-164030292D01*
X136458067Y-164030293D01*
X136605733Y-164222736D01*
X136605739Y-164222743D01*
X136777256Y-164394260D01*
X136777262Y-164394265D01*
X136969711Y-164541936D01*
X137179788Y-164663224D01*
X137403900Y-164756054D01*
X137638211Y-164818838D01*
X137818586Y-164842584D01*
X137878711Y-164850500D01*
X137878712Y-164850500D01*
X138121289Y-164850500D01*
X138169388Y-164844167D01*
X138361789Y-164818838D01*
X138596100Y-164756054D01*
X138820212Y-164663224D01*
X139030289Y-164541936D01*
X139222738Y-164394265D01*
X139394265Y-164222738D01*
X139541936Y-164030289D01*
X139663224Y-163820212D01*
X139756054Y-163596100D01*
X139818838Y-163361789D01*
X139850500Y-163121288D01*
X139850500Y-162878712D01*
X139818838Y-162638211D01*
X139756054Y-162403900D01*
X139663224Y-162179788D01*
X139541936Y-161969711D01*
X139394265Y-161777262D01*
X139394260Y-161777256D01*
X139222743Y-161605739D01*
X139222736Y-161605733D01*
X139030293Y-161458067D01*
X139030292Y-161458066D01*
X139030289Y-161458064D01*
X138820212Y-161336776D01*
X138820205Y-161336773D01*
X138596104Y-161243947D01*
X138361785Y-161181161D01*
X138121289Y-161149500D01*
X138121288Y-161149500D01*
X137878712Y-161149500D01*
X137878711Y-161149500D01*
X137638214Y-161181161D01*
X137403895Y-161243947D01*
X137179794Y-161336773D01*
X137179785Y-161336777D01*
X136969706Y-161458067D01*
X136777263Y-161605733D01*
X136777256Y-161605739D01*
X136605739Y-161777256D01*
X136605733Y-161777263D01*
X136458067Y-161969706D01*
X136336777Y-162179785D01*
X136336773Y-162179794D01*
X136243947Y-162403895D01*
X136181161Y-162638214D01*
X136149500Y-162878711D01*
X126472110Y-162878711D01*
X126394266Y-162777263D01*
X126394260Y-162777256D01*
X126222743Y-162605739D01*
X126222736Y-162605733D01*
X126030293Y-162458067D01*
X126030292Y-162458066D01*
X126030289Y-162458064D01*
X125820212Y-162336776D01*
X125820205Y-162336773D01*
X125596104Y-162243947D01*
X125361785Y-162181161D01*
X125121289Y-162149500D01*
X125121288Y-162149500D01*
X124878712Y-162149500D01*
X124878711Y-162149500D01*
X124638214Y-162181161D01*
X124403895Y-162243947D01*
X124179794Y-162336773D01*
X124179785Y-162336777D01*
X123969706Y-162458067D01*
X123777263Y-162605733D01*
X123777256Y-162605739D01*
X123605739Y-162777256D01*
X123605733Y-162777263D01*
X123458067Y-162969706D01*
X123336777Y-163179785D01*
X123336773Y-163179794D01*
X123243947Y-163403895D01*
X123181161Y-163638214D01*
X123149500Y-163878711D01*
X76650500Y-163878711D01*
X76618838Y-163638211D01*
X76556054Y-163403900D01*
X76463224Y-163179788D01*
X76341936Y-162969711D01*
X76194265Y-162777262D01*
X76194260Y-162777256D01*
X76022743Y-162605739D01*
X76022736Y-162605733D01*
X75830293Y-162458067D01*
X75830292Y-162458066D01*
X75830289Y-162458064D01*
X75620212Y-162336776D01*
X75620205Y-162336773D01*
X75396104Y-162243947D01*
X75161785Y-162181161D01*
X74921289Y-162149500D01*
X74921288Y-162149500D01*
X74678712Y-162149500D01*
X74678711Y-162149500D01*
X74438214Y-162181161D01*
X74203895Y-162243947D01*
X73979794Y-162336773D01*
X73979785Y-162336777D01*
X73769706Y-162458067D01*
X73577263Y-162605733D01*
X73577256Y-162605739D01*
X73405739Y-162777256D01*
X73405733Y-162777263D01*
X73258067Y-162969706D01*
X73136777Y-163179785D01*
X73136773Y-163179794D01*
X73043947Y-163403895D01*
X72981161Y-163638214D01*
X72949500Y-163878711D01*
X55629450Y-163878711D01*
X55663224Y-163820212D01*
X55756054Y-163596100D01*
X55818838Y-163361789D01*
X55850500Y-163121288D01*
X55850500Y-162878712D01*
X55818838Y-162638211D01*
X55756054Y-162403900D01*
X55663224Y-162179788D01*
X55541936Y-161969711D01*
X55394265Y-161777262D01*
X55394260Y-161777256D01*
X55222743Y-161605739D01*
X55222736Y-161605733D01*
X55130880Y-161535250D01*
X55030293Y-161458067D01*
X55030292Y-161458066D01*
X55030289Y-161458064D01*
X55002025Y-161441746D01*
X69274500Y-161441746D01*
X69274500Y-161658253D01*
X69308370Y-161872098D01*
X69375272Y-162078006D01*
X69375273Y-162078009D01*
X69459824Y-162243947D01*
X69473567Y-162270919D01*
X69600828Y-162446078D01*
X69753922Y-162599172D01*
X69929081Y-162726433D01*
X70023697Y-162774642D01*
X70121990Y-162824726D01*
X70121993Y-162824727D01*
X70224947Y-162858178D01*
X70327903Y-162891630D01*
X70541746Y-162925500D01*
X70541747Y-162925500D01*
X70758253Y-162925500D01*
X70758254Y-162925500D01*
X70972097Y-162891630D01*
X71178009Y-162824726D01*
X71370919Y-162726433D01*
X71546078Y-162599172D01*
X71699172Y-162446078D01*
X71826433Y-162270919D01*
X71924726Y-162078009D01*
X71991630Y-161872097D01*
X72025500Y-161658254D01*
X72025500Y-161441746D01*
X71991630Y-161227903D01*
X71924726Y-161021991D01*
X71924726Y-161021990D01*
X71826432Y-160829080D01*
X71699172Y-160653922D01*
X71546078Y-160500828D01*
X71370919Y-160373567D01*
X71178009Y-160275273D01*
X71178006Y-160275272D01*
X70972098Y-160208370D01*
X70865175Y-160191435D01*
X70758254Y-160174500D01*
X70541746Y-160174500D01*
X70470465Y-160185790D01*
X70327901Y-160208370D01*
X70121993Y-160275272D01*
X70121990Y-160275273D01*
X69929080Y-160373567D01*
X69829145Y-160446174D01*
X69753922Y-160500828D01*
X69753920Y-160500830D01*
X69753919Y-160500830D01*
X69600830Y-160653919D01*
X69600830Y-160653920D01*
X69600828Y-160653922D01*
X69546174Y-160729145D01*
X69473567Y-160829080D01*
X69375273Y-161021990D01*
X69375272Y-161021993D01*
X69308370Y-161227901D01*
X69274500Y-161441746D01*
X55002025Y-161441746D01*
X54820212Y-161336776D01*
X54820205Y-161336773D01*
X54596104Y-161243947D01*
X54361785Y-161181161D01*
X54121289Y-161149500D01*
X54121288Y-161149500D01*
X53878712Y-161149500D01*
X53878711Y-161149500D01*
X53638214Y-161181161D01*
X53403895Y-161243947D01*
X53179794Y-161336773D01*
X53179785Y-161336777D01*
X52969706Y-161458067D01*
X52777263Y-161605733D01*
X52777256Y-161605739D01*
X52605739Y-161777256D01*
X52605733Y-161777263D01*
X52458067Y-161969706D01*
X52336777Y-162179785D01*
X52336773Y-162179794D01*
X52243947Y-162403895D01*
X52181161Y-162638214D01*
X52149500Y-162878711D01*
X50500500Y-162878711D01*
X50500500Y-157127135D01*
X69274500Y-157127135D01*
X69274500Y-158972870D01*
X69274501Y-158972876D01*
X69280908Y-159032483D01*
X69331202Y-159167328D01*
X69331206Y-159167335D01*
X69417452Y-159282544D01*
X69417455Y-159282547D01*
X69532664Y-159368793D01*
X69532671Y-159368797D01*
X69667517Y-159419091D01*
X69667516Y-159419091D01*
X69674444Y-159419835D01*
X69727127Y-159425500D01*
X71572872Y-159425499D01*
X71632483Y-159419091D01*
X71767331Y-159368796D01*
X71882546Y-159282546D01*
X71968796Y-159167331D01*
X72019091Y-159032483D01*
X72025500Y-158972873D01*
X72025499Y-157127128D01*
X72019091Y-157067517D01*
X71994218Y-157000830D01*
X71968797Y-156932671D01*
X71968793Y-156932664D01*
X71882547Y-156817455D01*
X71882544Y-156817452D01*
X71767335Y-156731206D01*
X71767328Y-156731202D01*
X71632482Y-156680908D01*
X71632483Y-156680908D01*
X71572883Y-156674501D01*
X71572881Y-156674500D01*
X71572873Y-156674500D01*
X71572864Y-156674500D01*
X69727129Y-156674500D01*
X69727123Y-156674501D01*
X69667516Y-156680908D01*
X69532671Y-156731202D01*
X69532664Y-156731206D01*
X69417455Y-156817452D01*
X69417452Y-156817455D01*
X69331206Y-156932664D01*
X69331202Y-156932671D01*
X69280908Y-157067517D01*
X69274501Y-157127116D01*
X69274501Y-157127123D01*
X69274500Y-157127135D01*
X50500500Y-157127135D01*
X50500500Y-155478711D01*
X74149500Y-155478711D01*
X74149500Y-155721288D01*
X74181161Y-155961785D01*
X74243947Y-156196104D01*
X74336773Y-156420205D01*
X74336776Y-156420212D01*
X74458064Y-156630289D01*
X74458066Y-156630292D01*
X74458067Y-156630293D01*
X74605733Y-156822736D01*
X74605739Y-156822743D01*
X74777256Y-156994260D01*
X74777263Y-156994266D01*
X74872725Y-157067516D01*
X74969711Y-157141936D01*
X75179788Y-157263224D01*
X75403900Y-157356054D01*
X75638211Y-157418838D01*
X75818586Y-157442584D01*
X75878711Y-157450500D01*
X75878712Y-157450500D01*
X76121289Y-157450500D01*
X76169388Y-157444167D01*
X76361789Y-157418838D01*
X76596100Y-157356054D01*
X76820212Y-157263224D01*
X77030289Y-157141936D01*
X77222738Y-156994265D01*
X77394265Y-156822738D01*
X77541936Y-156630289D01*
X77663224Y-156420212D01*
X77756054Y-156196100D01*
X77818838Y-155961789D01*
X77850500Y-155721288D01*
X77850500Y-155478712D01*
X77850500Y-155478711D01*
X121949500Y-155478711D01*
X121949500Y-155721288D01*
X121981161Y-155961785D01*
X122043947Y-156196104D01*
X122136773Y-156420205D01*
X122136776Y-156420212D01*
X122258064Y-156630289D01*
X122258066Y-156630292D01*
X122258067Y-156630293D01*
X122405733Y-156822736D01*
X122405739Y-156822743D01*
X122577256Y-156994260D01*
X122577263Y-156994266D01*
X122672725Y-157067516D01*
X122769711Y-157141936D01*
X122979788Y-157263224D01*
X123203900Y-157356054D01*
X123438211Y-157418838D01*
X123618586Y-157442584D01*
X123678711Y-157450500D01*
X123678712Y-157450500D01*
X123921289Y-157450500D01*
X123969388Y-157444167D01*
X124161789Y-157418838D01*
X124396100Y-157356054D01*
X124620212Y-157263224D01*
X124830289Y-157141936D01*
X125022738Y-156994265D01*
X125194265Y-156822738D01*
X125341936Y-156630289D01*
X125463224Y-156420212D01*
X125556054Y-156196100D01*
X125618838Y-155961789D01*
X125650500Y-155721288D01*
X125650500Y-155478712D01*
X125618838Y-155238211D01*
X125556054Y-155003900D01*
X125463224Y-154779788D01*
X125341936Y-154569711D01*
X125194265Y-154377262D01*
X125194260Y-154377256D01*
X125022743Y-154205739D01*
X125022736Y-154205733D01*
X124830293Y-154058067D01*
X124830292Y-154058066D01*
X124830289Y-154058064D01*
X124620212Y-153936776D01*
X124620205Y-153936773D01*
X124396104Y-153843947D01*
X124161785Y-153781161D01*
X123921289Y-153749500D01*
X123921288Y-153749500D01*
X123678712Y-153749500D01*
X123678711Y-153749500D01*
X123438214Y-153781161D01*
X123203895Y-153843947D01*
X122979794Y-153936773D01*
X122979785Y-153936777D01*
X122769706Y-154058067D01*
X122577263Y-154205733D01*
X122577256Y-154205739D01*
X122405739Y-154377256D01*
X122405733Y-154377263D01*
X122258067Y-154569706D01*
X122136777Y-154779785D01*
X122136773Y-154779794D01*
X122043947Y-155003895D01*
X121981161Y-155238214D01*
X121949500Y-155478711D01*
X77850500Y-155478711D01*
X77818838Y-155238211D01*
X77756054Y-155003900D01*
X77663224Y-154779788D01*
X77541936Y-154569711D01*
X77394265Y-154377262D01*
X77394260Y-154377256D01*
X77222743Y-154205739D01*
X77222736Y-154205733D01*
X77030293Y-154058067D01*
X77030292Y-154058066D01*
X77030289Y-154058064D01*
X76820212Y-153936776D01*
X76820205Y-153936773D01*
X76596104Y-153843947D01*
X76361785Y-153781161D01*
X76121289Y-153749500D01*
X76121288Y-153749500D01*
X75878712Y-153749500D01*
X75878711Y-153749500D01*
X75638214Y-153781161D01*
X75403895Y-153843947D01*
X75179794Y-153936773D01*
X75179785Y-153936777D01*
X74969706Y-154058067D01*
X74777263Y-154205733D01*
X74777256Y-154205739D01*
X74605739Y-154377256D01*
X74605733Y-154377263D01*
X74458067Y-154569706D01*
X74336777Y-154779785D01*
X74336773Y-154779794D01*
X74243947Y-155003895D01*
X74181161Y-155238214D01*
X74149500Y-155478711D01*
X50500500Y-155478711D01*
X50500500Y-146102135D01*
X56249500Y-146102135D01*
X56249500Y-147697870D01*
X56249501Y-147697876D01*
X56255908Y-147757483D01*
X56306202Y-147892328D01*
X56306206Y-147892335D01*
X56392452Y-148007544D01*
X56392455Y-148007547D01*
X56507664Y-148093793D01*
X56507671Y-148093797D01*
X56552618Y-148110561D01*
X56642517Y-148144091D01*
X56702127Y-148150500D01*
X56775500Y-148150499D01*
X56842538Y-148170183D01*
X56888294Y-148222986D01*
X56899500Y-148274499D01*
X56899500Y-148920234D01*
X56879815Y-148987273D01*
X56878602Y-148989125D01*
X56790609Y-149120814D01*
X56790602Y-149120827D01*
X56730264Y-149266498D01*
X56730261Y-149266510D01*
X56699500Y-149421153D01*
X56699500Y-149578846D01*
X56730261Y-149733489D01*
X56730264Y-149733501D01*
X56790602Y-149879172D01*
X56790609Y-149879185D01*
X56878210Y-150010288D01*
X56878213Y-150010292D01*
X56989707Y-150121786D01*
X56989711Y-150121789D01*
X57120814Y-150209390D01*
X57120827Y-150209397D01*
X57266498Y-150269735D01*
X57266503Y-150269737D01*
X57421153Y-150300499D01*
X57421156Y-150300500D01*
X57421158Y-150300500D01*
X57578844Y-150300500D01*
X57578845Y-150300499D01*
X57733497Y-150269737D01*
X57879179Y-150209394D01*
X58010289Y-150121789D01*
X58121789Y-150010289D01*
X58209394Y-149879179D01*
X58269737Y-149733497D01*
X58300500Y-149578842D01*
X58300500Y-149421158D01*
X58300500Y-149421155D01*
X58300499Y-149421153D01*
X58269737Y-149266503D01*
X58224000Y-149156083D01*
X58209397Y-149120827D01*
X58209390Y-149120814D01*
X58121398Y-148989125D01*
X58100520Y-148922447D01*
X58100500Y-148920234D01*
X58100500Y-148274499D01*
X58120185Y-148207460D01*
X58172989Y-148161705D01*
X58224500Y-148150499D01*
X58297871Y-148150499D01*
X58297872Y-148150499D01*
X58357483Y-148144091D01*
X58492331Y-148093796D01*
X58607546Y-148007546D01*
X58693796Y-147892331D01*
X58744091Y-147757483D01*
X58750500Y-147697873D01*
X58750499Y-146102128D01*
X58744091Y-146042517D01*
X58693796Y-145907669D01*
X58693795Y-145907668D01*
X58693793Y-145907664D01*
X58607547Y-145792455D01*
X58607544Y-145792452D01*
X58492335Y-145706206D01*
X58492328Y-145706202D01*
X58357482Y-145655908D01*
X58357483Y-145655908D01*
X58297883Y-145649501D01*
X58297881Y-145649500D01*
X58297873Y-145649500D01*
X58297864Y-145649500D01*
X56702129Y-145649500D01*
X56702123Y-145649501D01*
X56642516Y-145655908D01*
X56507671Y-145706202D01*
X56507664Y-145706206D01*
X56392455Y-145792452D01*
X56392452Y-145792455D01*
X56306206Y-145907664D01*
X56306202Y-145907671D01*
X56255908Y-146042517D01*
X56249501Y-146102116D01*
X56249501Y-146102123D01*
X56249500Y-146102135D01*
X50500500Y-146102135D01*
X50500500Y-119372302D01*
X50520185Y-119305263D01*
X50572989Y-119259508D01*
X50624154Y-119248303D01*
X71710065Y-119191005D01*
X71731482Y-119197230D01*
X71753731Y-119198822D01*
X71764380Y-119206793D01*
X71777154Y-119210507D01*
X71791807Y-119227324D01*
X71809665Y-119240693D01*
X71814313Y-119253156D01*
X71823052Y-119263186D01*
X71826286Y-119285256D01*
X71834082Y-119306157D01*
X71831254Y-119319155D01*
X71833183Y-119332317D01*
X71823971Y-119352633D01*
X71819230Y-119374430D01*
X71806191Y-119391848D01*
X71804331Y-119395952D01*
X71798080Y-119402685D01*
X71699015Y-119501750D01*
X71699014Y-119501750D01*
X71699013Y-119501751D01*
X71280513Y-119920252D01*
X70881286Y-120319479D01*
X70881284Y-120319481D01*
X70825382Y-120375383D01*
X70769480Y-120431284D01*
X70763293Y-120442000D01*
X70743605Y-120467659D01*
X70743138Y-120468125D01*
X70648882Y-120590962D01*
X70589636Y-120733997D01*
X70589635Y-120734002D01*
X70574500Y-120848952D01*
X70574500Y-122376047D01*
X70589635Y-122490997D01*
X70589636Y-122491002D01*
X70648882Y-122634036D01*
X70648883Y-122634037D01*
X70743133Y-122756867D01*
X70865963Y-122851117D01*
X70865962Y-122851117D01*
X70890204Y-122861158D01*
X71009001Y-122910365D01*
X71123960Y-122925500D01*
X71123967Y-122925500D01*
X71376033Y-122925500D01*
X71376040Y-122925500D01*
X71483821Y-122911310D01*
X71516179Y-122911310D01*
X71623960Y-122925500D01*
X71623967Y-122925500D01*
X71876033Y-122925500D01*
X71876040Y-122925500D01*
X71983821Y-122911310D01*
X72016179Y-122911310D01*
X72123960Y-122925500D01*
X72123967Y-122925500D01*
X72376033Y-122925500D01*
X72376040Y-122925500D01*
X72483821Y-122911310D01*
X72516179Y-122911310D01*
X72623960Y-122925500D01*
X72623967Y-122925500D01*
X72876033Y-122925500D01*
X72876040Y-122925500D01*
X72983821Y-122911310D01*
X73016179Y-122911310D01*
X73123960Y-122925500D01*
X73123967Y-122925500D01*
X73376033Y-122925500D01*
X73376040Y-122925500D01*
X73490999Y-122910365D01*
X73499396Y-122906886D01*
X73568863Y-122899417D01*
X73631343Y-122930690D01*
X73634531Y-122933766D01*
X74025139Y-123324374D01*
X74025149Y-123324385D01*
X74029479Y-123328715D01*
X74029480Y-123328716D01*
X74141284Y-123440520D01*
X74218775Y-123485258D01*
X74228095Y-123490639D01*
X74228097Y-123490641D01*
X74266151Y-123512611D01*
X74278215Y-123519577D01*
X74430943Y-123560500D01*
X77554903Y-123560500D01*
X77621942Y-123580185D01*
X77642584Y-123596819D01*
X78024084Y-123978319D01*
X78057569Y-124039642D01*
X78052585Y-124109334D01*
X78010713Y-124165267D01*
X77945249Y-124189684D01*
X77936403Y-124190000D01*
X77788754Y-124190000D01*
X77578872Y-124223242D01*
X77578869Y-124223242D01*
X77376782Y-124288904D01*
X77187439Y-124385380D01*
X77133282Y-124424727D01*
X77133282Y-124424728D01*
X77765591Y-125057037D01*
X77702007Y-125074075D01*
X77587993Y-125139901D01*
X77494901Y-125232993D01*
X77429075Y-125347007D01*
X77412037Y-125410591D01*
X76741818Y-124740372D01*
X76708333Y-124679049D01*
X76705499Y-124652691D01*
X76705499Y-124642129D01*
X76705498Y-124642123D01*
X76705497Y-124642116D01*
X76699091Y-124582517D01*
X76672708Y-124511781D01*
X76648797Y-124447671D01*
X76648793Y-124447664D01*
X76562547Y-124332455D01*
X76562544Y-124332452D01*
X76447335Y-124246206D01*
X76447328Y-124246202D01*
X76312482Y-124195908D01*
X76312483Y-124195908D01*
X76252883Y-124189501D01*
X76252881Y-124189500D01*
X76252873Y-124189500D01*
X76252864Y-124189500D01*
X74457129Y-124189500D01*
X74457123Y-124189501D01*
X74397516Y-124195908D01*
X74262671Y-124246202D01*
X74262664Y-124246206D01*
X74147455Y-124332452D01*
X74147452Y-124332455D01*
X74061206Y-124447664D01*
X74061202Y-124447671D01*
X74010908Y-124582517D01*
X74004501Y-124642116D01*
X74004501Y-124642123D01*
X74004500Y-124642135D01*
X74004500Y-126437870D01*
X74004501Y-126437876D01*
X74010908Y-126497483D01*
X74061202Y-126632328D01*
X74061206Y-126632335D01*
X74147452Y-126747544D01*
X74147455Y-126747547D01*
X74262664Y-126833793D01*
X74262671Y-126833797D01*
X74397517Y-126884091D01*
X74397516Y-126884091D01*
X74404444Y-126884835D01*
X74457127Y-126890500D01*
X76252872Y-126890499D01*
X76312483Y-126884091D01*
X76447331Y-126833796D01*
X76562546Y-126747546D01*
X76648796Y-126632331D01*
X76699091Y-126497483D01*
X76705500Y-126437873D01*
X76705499Y-126413979D01*
X76708330Y-126400963D01*
X76718940Y-126381525D01*
X76725179Y-126360275D01*
X76741803Y-126339643D01*
X76741808Y-126339636D01*
X76741811Y-126339634D01*
X76741818Y-126339626D01*
X77412037Y-125669408D01*
X77429075Y-125732993D01*
X77494901Y-125847007D01*
X77587993Y-125940099D01*
X77702007Y-126005925D01*
X77765590Y-126022962D01*
X77133282Y-126655269D01*
X77133282Y-126655270D01*
X77187449Y-126694624D01*
X77376782Y-126791095D01*
X77578870Y-126856757D01*
X77788754Y-126890000D01*
X78001246Y-126890000D01*
X78211127Y-126856757D01*
X78211130Y-126856757D01*
X78413217Y-126791095D01*
X78602554Y-126694622D01*
X78656716Y-126655270D01*
X78656717Y-126655270D01*
X78024408Y-126022962D01*
X78087993Y-126005925D01*
X78202007Y-125940099D01*
X78295099Y-125847007D01*
X78360925Y-125732993D01*
X78377962Y-125669408D01*
X79010270Y-126301717D01*
X79010270Y-126301716D01*
X79049622Y-126247555D01*
X79054232Y-126238507D01*
X79102205Y-126187709D01*
X79170025Y-126170912D01*
X79236161Y-126193447D01*
X79275204Y-126238504D01*
X79279949Y-126247817D01*
X79404890Y-126419786D01*
X79555213Y-126570109D01*
X79727179Y-126695048D01*
X79727181Y-126695049D01*
X79727184Y-126695051D01*
X79916588Y-126791557D01*
X80118757Y-126857246D01*
X80328713Y-126890500D01*
X80328714Y-126890500D01*
X80541286Y-126890500D01*
X80541287Y-126890500D01*
X80751243Y-126857246D01*
X80953412Y-126791557D01*
X81142816Y-126695051D01*
X81229138Y-126632335D01*
X81314786Y-126570109D01*
X81314788Y-126570106D01*
X81314792Y-126570104D01*
X81465104Y-126419792D01*
X81465106Y-126419788D01*
X81465109Y-126419786D01*
X81590048Y-126247820D01*
X81590050Y-126247817D01*
X81590051Y-126247816D01*
X81594514Y-126239054D01*
X81642488Y-126188259D01*
X81710308Y-126171463D01*
X81776444Y-126193999D01*
X81815486Y-126239056D01*
X81819951Y-126247820D01*
X81944890Y-126419786D01*
X82095213Y-126570109D01*
X82267179Y-126695048D01*
X82267181Y-126695049D01*
X82267184Y-126695051D01*
X82456588Y-126791557D01*
X82658757Y-126857246D01*
X82868713Y-126890500D01*
X82868714Y-126890500D01*
X83081286Y-126890500D01*
X83081287Y-126890500D01*
X83291243Y-126857246D01*
X83493412Y-126791557D01*
X83682816Y-126695051D01*
X83769138Y-126632335D01*
X83854786Y-126570109D01*
X83854788Y-126570106D01*
X83854792Y-126570104D01*
X84005104Y-126419792D01*
X84005106Y-126419788D01*
X84005109Y-126419786D01*
X84130048Y-126247820D01*
X84130050Y-126247817D01*
X84130051Y-126247816D01*
X84226557Y-126058412D01*
X84292246Y-125856243D01*
X84325500Y-125646287D01*
X84325500Y-125433713D01*
X84292246Y-125223757D01*
X84226557Y-125021588D01*
X84130051Y-124832184D01*
X84130049Y-124832181D01*
X84130048Y-124832179D01*
X84005109Y-124660213D01*
X83854786Y-124509890D01*
X83682820Y-124384951D01*
X83493414Y-124288444D01*
X83493413Y-124288443D01*
X83493412Y-124288443D01*
X83291243Y-124222754D01*
X83291241Y-124222753D01*
X83291240Y-124222753D01*
X83129957Y-124197208D01*
X83081287Y-124189500D01*
X82868713Y-124189500D01*
X82840006Y-124194046D01*
X82658757Y-124222753D01*
X82616473Y-124236492D01*
X82546632Y-124238486D01*
X82490476Y-124206241D01*
X80481590Y-122197355D01*
X80481588Y-122197352D01*
X80362717Y-122078481D01*
X80362716Y-122078480D01*
X80273842Y-122027169D01*
X80273841Y-122027168D01*
X80225790Y-121999425D01*
X80225789Y-121999424D01*
X80213263Y-121996067D01*
X80073057Y-121958499D01*
X79914943Y-121958499D01*
X79907347Y-121958499D01*
X79907331Y-121958500D01*
X78219050Y-121958500D01*
X78152011Y-121938815D01*
X78106256Y-121886011D01*
X78096312Y-121816853D01*
X78113511Y-121769404D01*
X78159810Y-121694340D01*
X78159814Y-121694334D01*
X78214999Y-121527797D01*
X78225500Y-121425009D01*
X78225499Y-120649992D01*
X78224985Y-120644965D01*
X78214999Y-120547203D01*
X78214998Y-120547200D01*
X78206305Y-120520966D01*
X78159814Y-120380666D01*
X78067712Y-120231344D01*
X77943656Y-120107288D01*
X77940342Y-120105243D01*
X77938546Y-120103248D01*
X77937989Y-120102807D01*
X77938064Y-120102711D01*
X77893618Y-120053297D01*
X77882397Y-119984334D01*
X77910240Y-119920252D01*
X77940348Y-119894165D01*
X77943342Y-119892318D01*
X78067315Y-119768345D01*
X78159356Y-119619124D01*
X78159358Y-119619119D01*
X78214505Y-119452697D01*
X78214506Y-119452690D01*
X78224999Y-119349985D01*
X78224999Y-119296966D01*
X78244682Y-119229926D01*
X78297486Y-119184171D01*
X78348654Y-119172965D01*
X96791139Y-119122850D01*
X96858228Y-119142352D01*
X96904126Y-119195031D01*
X96913089Y-119222658D01*
X96914497Y-119229736D01*
X96914499Y-119229744D01*
X96960096Y-119339826D01*
X96963535Y-119348127D01*
X97034723Y-119454669D01*
X97034726Y-119454673D01*
X97034727Y-119454674D01*
X101739407Y-124159353D01*
X101772892Y-124220676D01*
X101767908Y-124290368D01*
X101726036Y-124346301D01*
X101708023Y-124357518D01*
X101668386Y-124377714D01*
X101502786Y-124498028D01*
X101358028Y-124642786D01*
X101237715Y-124808386D01*
X101190485Y-124901080D01*
X101142510Y-124951876D01*
X101074689Y-124968671D01*
X101008554Y-124946134D01*
X100969515Y-124901080D01*
X100968883Y-124899840D01*
X100922287Y-124808390D01*
X100914556Y-124797749D01*
X100801971Y-124642786D01*
X100657213Y-124498028D01*
X100491613Y-124377715D01*
X100491612Y-124377714D01*
X100491610Y-124377713D01*
X100420499Y-124341480D01*
X100309223Y-124284781D01*
X100114534Y-124221522D01*
X99939995Y-124193878D01*
X99912352Y-124189500D01*
X99707648Y-124189500D01*
X99683329Y-124193351D01*
X99505465Y-124221522D01*
X99310776Y-124284781D01*
X99128386Y-124377715D01*
X98962786Y-124498028D01*
X98818028Y-124642786D01*
X98697715Y-124808386D01*
X98604781Y-124990776D01*
X98541522Y-125185465D01*
X98509500Y-125387648D01*
X98509500Y-125592351D01*
X98541522Y-125794534D01*
X98604781Y-125989223D01*
X98668691Y-126114653D01*
X98697638Y-126171463D01*
X98697715Y-126171613D01*
X98818028Y-126337213D01*
X98962786Y-126481971D01*
X99108383Y-126587751D01*
X99128390Y-126602287D01*
X99208453Y-126643081D01*
X99310776Y-126695218D01*
X99310778Y-126695218D01*
X99310781Y-126695220D01*
X99415137Y-126729127D01*
X99505465Y-126758477D01*
X99589564Y-126771797D01*
X99707648Y-126790500D01*
X99707649Y-126790500D01*
X99912351Y-126790500D01*
X99912352Y-126790500D01*
X100114534Y-126758477D01*
X100309219Y-126695220D01*
X100491610Y-126602287D01*
X100635862Y-126497483D01*
X100657213Y-126481971D01*
X100657215Y-126481968D01*
X100657219Y-126481966D01*
X100801966Y-126337219D01*
X100801968Y-126337215D01*
X100801971Y-126337213D01*
X100922284Y-126171614D01*
X100922286Y-126171611D01*
X100922287Y-126171610D01*
X100969516Y-126078917D01*
X101017489Y-126028123D01*
X101085310Y-126011328D01*
X101151445Y-126033865D01*
X101190485Y-126078919D01*
X101237715Y-126171614D01*
X101358028Y-126337213D01*
X101502786Y-126481971D01*
X101648383Y-126587751D01*
X101668390Y-126602287D01*
X101748453Y-126643081D01*
X101850776Y-126695218D01*
X101850778Y-126695218D01*
X101850781Y-126695220D01*
X101955137Y-126729127D01*
X102045465Y-126758477D01*
X102129564Y-126771797D01*
X102247648Y-126790500D01*
X102247649Y-126790500D01*
X102452351Y-126790500D01*
X102452352Y-126790500D01*
X102654534Y-126758477D01*
X102849219Y-126695220D01*
X102908205Y-126665164D01*
X102976874Y-126652269D01*
X103041614Y-126678545D01*
X103081872Y-126735651D01*
X103088500Y-126775650D01*
X103088500Y-131540569D01*
X103088500Y-131540571D01*
X103088499Y-131540571D01*
X103110366Y-131650497D01*
X103110367Y-131650500D01*
X103113499Y-131666244D01*
X103162535Y-131784627D01*
X103171091Y-131797432D01*
X103233726Y-131891173D01*
X103233727Y-131891174D01*
X103991546Y-132648992D01*
X104025031Y-132710315D01*
X104027483Y-132746401D01*
X104024500Y-132784298D01*
X104024500Y-133215701D01*
X104027401Y-133252567D01*
X104027402Y-133252573D01*
X104073254Y-133410393D01*
X104073255Y-133410396D01*
X104156917Y-133551862D01*
X104156923Y-133551870D01*
X104273129Y-133668076D01*
X104273133Y-133668079D01*
X104273135Y-133668081D01*
X104414602Y-133751744D01*
X104456224Y-133763836D01*
X104572426Y-133797597D01*
X104572429Y-133797597D01*
X104572431Y-133797598D01*
X104609306Y-133800500D01*
X105775500Y-133800500D01*
X105842539Y-133820185D01*
X105888294Y-133872989D01*
X105899500Y-133924500D01*
X105899500Y-134165701D01*
X105902401Y-134202567D01*
X105902402Y-134202573D01*
X105948254Y-134360393D01*
X105948255Y-134360396D01*
X106031917Y-134501862D01*
X106031923Y-134501870D01*
X106148129Y-134618076D01*
X106148133Y-134618079D01*
X106148135Y-134618081D01*
X106289602Y-134701744D01*
X106328469Y-134713036D01*
X106447426Y-134747597D01*
X106447429Y-134747597D01*
X106447431Y-134747598D01*
X106484306Y-134750500D01*
X106484314Y-134750500D01*
X107790686Y-134750500D01*
X107790694Y-134750500D01*
X107827569Y-134747598D01*
X107842297Y-134743319D01*
X107912166Y-134743516D01*
X107970837Y-134781456D01*
X107982431Y-134797293D01*
X108057288Y-134918656D01*
X108181344Y-135042712D01*
X108330666Y-135134814D01*
X108497203Y-135189999D01*
X108599991Y-135200500D01*
X109400008Y-135200499D01*
X109400016Y-135200498D01*
X109400019Y-135200498D01*
X109456302Y-135194748D01*
X109502797Y-135189999D01*
X109669334Y-135134814D01*
X109818656Y-135042712D01*
X109912319Y-134949049D01*
X109973642Y-134915564D01*
X110043334Y-134920548D01*
X110087681Y-134949049D01*
X110181344Y-135042712D01*
X110330666Y-135134814D01*
X110497203Y-135189999D01*
X110599991Y-135200500D01*
X111089191Y-135200499D01*
X111156230Y-135220183D01*
X111176872Y-135236818D01*
X115157873Y-139217819D01*
X115191358Y-139279142D01*
X115186374Y-139348834D01*
X115144502Y-139404767D01*
X115079038Y-139429184D01*
X115070192Y-139429500D01*
X114947648Y-139429500D01*
X114941000Y-139430553D01*
X114745465Y-139461522D01*
X114550776Y-139524781D01*
X114368386Y-139617715D01*
X114202786Y-139738028D01*
X114058028Y-139882786D01*
X113937715Y-140048386D01*
X113890485Y-140141080D01*
X113842510Y-140191876D01*
X113774689Y-140208671D01*
X113708554Y-140186134D01*
X113669515Y-140141080D01*
X113666861Y-140135871D01*
X113622287Y-140048390D01*
X113614556Y-140037749D01*
X113501971Y-139882786D01*
X113357213Y-139738028D01*
X113191613Y-139617715D01*
X113191612Y-139617714D01*
X113191610Y-139617713D01*
X113134653Y-139588691D01*
X113009223Y-139524781D01*
X112814534Y-139461522D01*
X112619000Y-139430553D01*
X112612352Y-139429500D01*
X112407648Y-139429500D01*
X112401000Y-139430553D01*
X112205465Y-139461522D01*
X112010776Y-139524781D01*
X111828386Y-139617715D01*
X111662786Y-139738028D01*
X111518028Y-139882786D01*
X111397715Y-140048386D01*
X111350485Y-140141080D01*
X111302510Y-140191876D01*
X111234689Y-140208671D01*
X111168554Y-140186134D01*
X111129515Y-140141080D01*
X111126861Y-140135871D01*
X111082287Y-140048390D01*
X111074556Y-140037749D01*
X110961971Y-139882786D01*
X110817213Y-139738028D01*
X110651613Y-139617715D01*
X110651612Y-139617714D01*
X110651610Y-139617713D01*
X110594653Y-139588691D01*
X110469223Y-139524781D01*
X110274534Y-139461522D01*
X110079000Y-139430553D01*
X110072352Y-139429500D01*
X109867648Y-139429500D01*
X109861000Y-139430553D01*
X109665465Y-139461522D01*
X109470776Y-139524781D01*
X109288386Y-139617715D01*
X109122786Y-139738028D01*
X108978028Y-139882786D01*
X108857715Y-140048386D01*
X108810485Y-140141080D01*
X108762510Y-140191876D01*
X108694689Y-140208671D01*
X108628554Y-140186134D01*
X108589515Y-140141080D01*
X108586861Y-140135871D01*
X108542287Y-140048390D01*
X108534556Y-140037749D01*
X108421971Y-139882786D01*
X108277213Y-139738028D01*
X108111613Y-139617715D01*
X108111612Y-139617714D01*
X108111610Y-139617713D01*
X108054653Y-139588691D01*
X107929223Y-139524781D01*
X107734534Y-139461522D01*
X107539000Y-139430553D01*
X107532352Y-139429500D01*
X107327648Y-139429500D01*
X107321000Y-139430553D01*
X107125465Y-139461522D01*
X106930776Y-139524781D01*
X106748386Y-139617715D01*
X106582786Y-139738028D01*
X106438028Y-139882786D01*
X106317715Y-140048386D01*
X106270485Y-140141080D01*
X106222510Y-140191876D01*
X106154689Y-140208671D01*
X106088554Y-140186134D01*
X106049515Y-140141080D01*
X106046861Y-140135871D01*
X106002287Y-140048390D01*
X105994556Y-140037749D01*
X105881971Y-139882786D01*
X105737213Y-139738028D01*
X105571613Y-139617715D01*
X105571612Y-139617714D01*
X105571610Y-139617713D01*
X105514653Y-139588691D01*
X105389223Y-139524781D01*
X105194534Y-139461522D01*
X104999000Y-139430553D01*
X104992352Y-139429500D01*
X104787648Y-139429500D01*
X104781000Y-139430553D01*
X104585465Y-139461522D01*
X104390776Y-139524781D01*
X104208386Y-139617715D01*
X104042786Y-139738028D01*
X103898028Y-139882786D01*
X103777715Y-140048386D01*
X103730485Y-140141080D01*
X103682510Y-140191876D01*
X103614689Y-140208671D01*
X103548554Y-140186134D01*
X103509515Y-140141080D01*
X103506861Y-140135871D01*
X103462287Y-140048390D01*
X103454556Y-140037749D01*
X103341971Y-139882786D01*
X103197213Y-139738028D01*
X103031613Y-139617715D01*
X103031612Y-139617714D01*
X103031610Y-139617713D01*
X102974653Y-139588691D01*
X102849223Y-139524781D01*
X102654534Y-139461522D01*
X102459000Y-139430553D01*
X102452352Y-139429500D01*
X102247648Y-139429500D01*
X102241000Y-139430553D01*
X102045465Y-139461522D01*
X101850776Y-139524781D01*
X101668386Y-139617715D01*
X101502786Y-139738028D01*
X101358032Y-139882782D01*
X101331668Y-139919070D01*
X101276338Y-139961735D01*
X101206724Y-139967714D01*
X101144929Y-139935108D01*
X101110572Y-139874269D01*
X101108060Y-139859438D01*
X101107640Y-139855533D01*
X101104091Y-139822517D01*
X101053796Y-139687669D01*
X101053795Y-139687668D01*
X101053793Y-139687664D01*
X100967547Y-139572455D01*
X100967544Y-139572452D01*
X100852335Y-139486206D01*
X100852328Y-139486202D01*
X100717482Y-139435908D01*
X100717483Y-139435908D01*
X100657883Y-139429501D01*
X100657881Y-139429500D01*
X100657873Y-139429500D01*
X100657864Y-139429500D01*
X98962129Y-139429500D01*
X98962123Y-139429501D01*
X98902516Y-139435908D01*
X98767671Y-139486202D01*
X98767664Y-139486206D01*
X98652455Y-139572452D01*
X98652452Y-139572455D01*
X98566206Y-139687664D01*
X98566202Y-139687671D01*
X98515908Y-139822517D01*
X98509501Y-139882116D01*
X98509500Y-139882135D01*
X98509501Y-141106500D01*
X98489816Y-141173539D01*
X98437013Y-141219294D01*
X98385501Y-141230500D01*
X60601808Y-141230500D01*
X60534769Y-141210815D01*
X60514127Y-141194181D01*
X58786818Y-139466872D01*
X58753333Y-139405549D01*
X58750499Y-139379191D01*
X58750499Y-138302129D01*
X58750498Y-138302123D01*
X58750497Y-138302116D01*
X58744091Y-138242517D01*
X58693796Y-138107669D01*
X58693795Y-138107668D01*
X58693793Y-138107664D01*
X58607547Y-137992455D01*
X58607544Y-137992452D01*
X58492335Y-137906206D01*
X58492328Y-137906202D01*
X58357482Y-137855908D01*
X58357483Y-137855908D01*
X58297883Y-137849501D01*
X58297881Y-137849500D01*
X58297873Y-137849500D01*
X58297864Y-137849500D01*
X56702129Y-137849500D01*
X56702123Y-137849501D01*
X56642516Y-137855908D01*
X56507671Y-137906202D01*
X56507664Y-137906206D01*
X56392455Y-137992452D01*
X56392452Y-137992455D01*
X56306206Y-138107664D01*
X56306202Y-138107671D01*
X56255908Y-138242517D01*
X56249501Y-138302116D01*
X56249501Y-138302123D01*
X56249500Y-138302135D01*
X56249500Y-139897870D01*
X56249501Y-139897876D01*
X56255908Y-139957483D01*
X56306202Y-140092328D01*
X56306206Y-140092335D01*
X56392452Y-140207544D01*
X56392455Y-140207547D01*
X56507664Y-140293793D01*
X56507671Y-140293797D01*
X56642517Y-140344091D01*
X56642516Y-140344091D01*
X56649444Y-140344835D01*
X56702127Y-140350500D01*
X57779191Y-140350499D01*
X57846230Y-140370183D01*
X57866872Y-140386818D01*
X59866325Y-142386272D01*
X59866326Y-142386273D01*
X59866329Y-142386275D01*
X59866331Y-142386277D01*
X59972873Y-142457465D01*
X60091256Y-142506501D01*
X60091260Y-142506501D01*
X60091261Y-142506502D01*
X60216928Y-142531500D01*
X60216931Y-142531500D01*
X111423071Y-142531500D01*
X111507615Y-142514682D01*
X111548744Y-142506501D01*
X111667127Y-142457465D01*
X111773669Y-142386277D01*
X112122808Y-142037136D01*
X112184131Y-142003652D01*
X112229887Y-142002345D01*
X112407648Y-142030500D01*
X112407649Y-142030500D01*
X112612351Y-142030500D01*
X112612352Y-142030500D01*
X112814534Y-141998477D01*
X113009219Y-141935220D01*
X113191610Y-141842287D01*
X113284590Y-141774732D01*
X113357213Y-141721971D01*
X113357215Y-141721968D01*
X113357219Y-141721966D01*
X113501966Y-141577219D01*
X113501968Y-141577215D01*
X113501971Y-141577213D01*
X113622284Y-141411614D01*
X113622285Y-141411613D01*
X113622287Y-141411610D01*
X113669516Y-141318917D01*
X113717489Y-141268123D01*
X113785310Y-141251328D01*
X113851445Y-141273865D01*
X113890485Y-141318919D01*
X113937715Y-141411614D01*
X114058028Y-141577213D01*
X114202786Y-141721971D01*
X114357749Y-141834556D01*
X114368390Y-141842287D01*
X114484607Y-141901503D01*
X114550776Y-141935218D01*
X114550778Y-141935218D01*
X114550781Y-141935220D01*
X114655137Y-141969127D01*
X114745465Y-141998477D01*
X114846557Y-142014488D01*
X114947648Y-142030500D01*
X114947649Y-142030500D01*
X115152351Y-142030500D01*
X115152352Y-142030500D01*
X115354534Y-141998477D01*
X115549219Y-141935220D01*
X115731610Y-141842287D01*
X115824590Y-141774732D01*
X115897213Y-141721971D01*
X115897215Y-141721968D01*
X115897219Y-141721966D01*
X116041966Y-141577219D01*
X116041968Y-141577215D01*
X116041971Y-141577213D01*
X116162284Y-141411614D01*
X116162285Y-141411613D01*
X116162287Y-141411610D01*
X116209516Y-141318917D01*
X116257489Y-141268123D01*
X116325310Y-141251328D01*
X116391445Y-141273865D01*
X116430485Y-141318919D01*
X116477715Y-141411614D01*
X116598028Y-141577213D01*
X116742786Y-141721971D01*
X116897749Y-141834556D01*
X116908390Y-141842287D01*
X117024607Y-141901503D01*
X117090776Y-141935218D01*
X117090778Y-141935218D01*
X117090781Y-141935220D01*
X117195137Y-141969127D01*
X117285465Y-141998477D01*
X117386557Y-142014488D01*
X117487648Y-142030500D01*
X117487649Y-142030500D01*
X117692351Y-142030500D01*
X117692352Y-142030500D01*
X117894534Y-141998477D01*
X118089219Y-141935220D01*
X118271610Y-141842287D01*
X118364590Y-141774732D01*
X118437213Y-141721971D01*
X118437215Y-141721968D01*
X118437219Y-141721966D01*
X118581966Y-141577219D01*
X118581968Y-141577215D01*
X118581971Y-141577213D01*
X118702284Y-141411614D01*
X118702285Y-141411613D01*
X118702287Y-141411610D01*
X118749516Y-141318917D01*
X118797489Y-141268123D01*
X118865310Y-141251328D01*
X118931445Y-141273865D01*
X118970485Y-141318919D01*
X119017715Y-141411614D01*
X119138028Y-141577213D01*
X119282786Y-141721971D01*
X119437749Y-141834556D01*
X119448390Y-141842287D01*
X119564607Y-141901503D01*
X119630776Y-141935218D01*
X119630778Y-141935218D01*
X119630781Y-141935220D01*
X119735137Y-141969127D01*
X119825465Y-141998477D01*
X119926557Y-142014488D01*
X120027648Y-142030500D01*
X120027649Y-142030500D01*
X120232351Y-142030500D01*
X120232352Y-142030500D01*
X120434534Y-141998477D01*
X120629219Y-141935220D01*
X120811610Y-141842287D01*
X120904590Y-141774732D01*
X120977213Y-141721971D01*
X120977215Y-141721968D01*
X120977219Y-141721966D01*
X121121966Y-141577219D01*
X121121968Y-141577215D01*
X121121971Y-141577213D01*
X121242284Y-141411614D01*
X121242285Y-141411613D01*
X121242287Y-141411610D01*
X121289516Y-141318917D01*
X121337489Y-141268123D01*
X121405310Y-141251328D01*
X121471445Y-141273865D01*
X121510485Y-141318919D01*
X121557715Y-141411614D01*
X121678028Y-141577213D01*
X121822786Y-141721971D01*
X121977749Y-141834556D01*
X121988390Y-141842287D01*
X122104607Y-141901503D01*
X122170776Y-141935218D01*
X122170778Y-141935218D01*
X122170781Y-141935220D01*
X122275137Y-141969127D01*
X122365465Y-141998477D01*
X122466557Y-142014488D01*
X122567648Y-142030500D01*
X122567649Y-142030500D01*
X122772351Y-142030500D01*
X122772352Y-142030500D01*
X122974534Y-141998477D01*
X123169219Y-141935220D01*
X123351610Y-141842287D01*
X123444590Y-141774732D01*
X123517213Y-141721971D01*
X123517215Y-141721968D01*
X123517219Y-141721966D01*
X123661966Y-141577219D01*
X123661968Y-141577215D01*
X123661971Y-141577213D01*
X123782284Y-141411614D01*
X123782285Y-141411613D01*
X123782287Y-141411610D01*
X123829516Y-141318917D01*
X123877489Y-141268123D01*
X123945310Y-141251328D01*
X124011445Y-141273865D01*
X124050485Y-141318919D01*
X124097715Y-141411614D01*
X124218028Y-141577213D01*
X124362786Y-141721971D01*
X124517749Y-141834556D01*
X124528390Y-141842287D01*
X124644607Y-141901503D01*
X124710776Y-141935218D01*
X124710778Y-141935218D01*
X124710781Y-141935220D01*
X124815137Y-141969127D01*
X124905465Y-141998477D01*
X125006557Y-142014488D01*
X125107648Y-142030500D01*
X125107649Y-142030500D01*
X125312351Y-142030500D01*
X125312352Y-142030500D01*
X125514534Y-141998477D01*
X125709219Y-141935220D01*
X125891610Y-141842287D01*
X125984590Y-141774732D01*
X126057213Y-141721971D01*
X126057215Y-141721968D01*
X126057219Y-141721966D01*
X126201966Y-141577219D01*
X126201968Y-141577215D01*
X126201971Y-141577213D01*
X126322284Y-141411614D01*
X126322285Y-141411613D01*
X126322287Y-141411610D01*
X126369516Y-141318917D01*
X126417489Y-141268123D01*
X126485310Y-141251328D01*
X126551445Y-141273865D01*
X126590485Y-141318919D01*
X126637715Y-141411614D01*
X126758028Y-141577213D01*
X126902786Y-141721971D01*
X127057749Y-141834556D01*
X127068390Y-141842287D01*
X127184607Y-141901503D01*
X127250776Y-141935218D01*
X127250778Y-141935218D01*
X127250781Y-141935220D01*
X127355137Y-141969127D01*
X127445465Y-141998477D01*
X127546557Y-142014488D01*
X127647648Y-142030500D01*
X127647649Y-142030500D01*
X127852351Y-142030500D01*
X127852352Y-142030500D01*
X128054534Y-141998477D01*
X128249219Y-141935220D01*
X128431610Y-141842287D01*
X128524590Y-141774732D01*
X128597213Y-141721971D01*
X128597215Y-141721968D01*
X128597219Y-141721966D01*
X128741966Y-141577219D01*
X128741968Y-141577215D01*
X128741971Y-141577213D01*
X128862284Y-141411614D01*
X128862285Y-141411613D01*
X128862287Y-141411610D01*
X128909516Y-141318917D01*
X128957489Y-141268123D01*
X129025310Y-141251328D01*
X129091445Y-141273865D01*
X129130485Y-141318919D01*
X129177715Y-141411614D01*
X129298028Y-141577213D01*
X129442786Y-141721971D01*
X129597749Y-141834556D01*
X129608390Y-141842287D01*
X129724607Y-141901503D01*
X129790776Y-141935218D01*
X129790778Y-141935218D01*
X129790781Y-141935220D01*
X129895137Y-141969127D01*
X129985465Y-141998477D01*
X130086557Y-142014488D01*
X130187648Y-142030500D01*
X130187649Y-142030500D01*
X130392351Y-142030500D01*
X130392352Y-142030500D01*
X130594534Y-141998477D01*
X130789219Y-141935220D01*
X130971610Y-141842287D01*
X131064590Y-141774732D01*
X131137213Y-141721971D01*
X131137215Y-141721968D01*
X131137219Y-141721966D01*
X131281966Y-141577219D01*
X131281968Y-141577215D01*
X131281971Y-141577213D01*
X131402284Y-141411614D01*
X131402285Y-141411613D01*
X131402287Y-141411610D01*
X131449516Y-141318917D01*
X131497489Y-141268123D01*
X131565310Y-141251328D01*
X131631445Y-141273865D01*
X131670485Y-141318919D01*
X131717715Y-141411614D01*
X131838028Y-141577213D01*
X131982786Y-141721971D01*
X132137749Y-141834556D01*
X132148390Y-141842287D01*
X132264607Y-141901503D01*
X132330776Y-141935218D01*
X132330778Y-141935218D01*
X132330781Y-141935220D01*
X132435137Y-141969127D01*
X132525465Y-141998477D01*
X132626557Y-142014488D01*
X132727648Y-142030500D01*
X132727649Y-142030500D01*
X132932351Y-142030500D01*
X132932352Y-142030500D01*
X133134534Y-141998477D01*
X133329219Y-141935220D01*
X133511610Y-141842287D01*
X133604590Y-141774732D01*
X133677213Y-141721971D01*
X133677215Y-141721968D01*
X133677219Y-141721966D01*
X133821966Y-141577219D01*
X133821968Y-141577215D01*
X133821971Y-141577213D01*
X133942284Y-141411614D01*
X133942285Y-141411613D01*
X133942287Y-141411610D01*
X133989516Y-141318917D01*
X134037489Y-141268123D01*
X134105310Y-141251328D01*
X134171445Y-141273865D01*
X134210485Y-141318919D01*
X134257715Y-141411614D01*
X134378028Y-141577213D01*
X134522786Y-141721971D01*
X134677749Y-141834556D01*
X134688390Y-141842287D01*
X134804607Y-141901503D01*
X134870776Y-141935218D01*
X134870778Y-141935218D01*
X134870781Y-141935220D01*
X134975137Y-141969127D01*
X135065465Y-141998477D01*
X135166557Y-142014488D01*
X135267648Y-142030500D01*
X135267649Y-142030500D01*
X135472351Y-142030500D01*
X135472352Y-142030500D01*
X135674534Y-141998477D01*
X135869219Y-141935220D01*
X136051610Y-141842287D01*
X136144590Y-141774732D01*
X136217213Y-141721971D01*
X136217215Y-141721968D01*
X136217219Y-141721966D01*
X136361966Y-141577219D01*
X136361968Y-141577215D01*
X136361971Y-141577213D01*
X136414732Y-141504590D01*
X136482287Y-141411610D01*
X136575220Y-141229219D01*
X136638477Y-141034534D01*
X136670500Y-140832352D01*
X136670500Y-140627648D01*
X136638477Y-140425466D01*
X136620514Y-140370183D01*
X136575218Y-140230776D01*
X136526861Y-140135871D01*
X136482287Y-140048390D01*
X136474556Y-140037749D01*
X136361971Y-139882786D01*
X136217213Y-139738028D01*
X136051613Y-139617715D01*
X136051612Y-139617714D01*
X136051610Y-139617713D01*
X135994653Y-139588691D01*
X135869223Y-139524781D01*
X135674534Y-139461522D01*
X135479000Y-139430553D01*
X135472352Y-139429500D01*
X135267648Y-139429500D01*
X135261000Y-139430553D01*
X135065465Y-139461522D01*
X134870776Y-139524781D01*
X134688386Y-139617715D01*
X134522786Y-139738028D01*
X134378028Y-139882786D01*
X134257715Y-140048386D01*
X134210485Y-140141080D01*
X134162510Y-140191876D01*
X134094689Y-140208671D01*
X134028554Y-140186134D01*
X133989515Y-140141080D01*
X133986861Y-140135871D01*
X133942287Y-140048390D01*
X133934556Y-140037749D01*
X133821971Y-139882786D01*
X133677213Y-139738028D01*
X133511613Y-139617715D01*
X133511612Y-139617714D01*
X133511610Y-139617713D01*
X133454653Y-139588691D01*
X133329223Y-139524781D01*
X133134534Y-139461522D01*
X132939000Y-139430553D01*
X132932352Y-139429500D01*
X132727648Y-139429500D01*
X132721000Y-139430553D01*
X132525465Y-139461522D01*
X132330776Y-139524781D01*
X132148386Y-139617715D01*
X131982786Y-139738028D01*
X131838028Y-139882786D01*
X131717715Y-140048386D01*
X131670485Y-140141080D01*
X131622510Y-140191876D01*
X131554689Y-140208671D01*
X131488554Y-140186134D01*
X131449515Y-140141080D01*
X131446861Y-140135871D01*
X131402287Y-140048390D01*
X131394556Y-140037749D01*
X131281971Y-139882786D01*
X131137213Y-139738028D01*
X130971613Y-139617715D01*
X130971612Y-139617714D01*
X130971610Y-139617713D01*
X130914653Y-139588691D01*
X130789223Y-139524781D01*
X130594534Y-139461522D01*
X130399000Y-139430553D01*
X130392352Y-139429500D01*
X130187648Y-139429500D01*
X130181000Y-139430553D01*
X129985465Y-139461522D01*
X129790776Y-139524781D01*
X129608386Y-139617715D01*
X129442786Y-139738028D01*
X129298028Y-139882786D01*
X129177715Y-140048386D01*
X129130485Y-140141080D01*
X129082510Y-140191876D01*
X129014689Y-140208671D01*
X128948554Y-140186134D01*
X128909515Y-140141080D01*
X128906861Y-140135871D01*
X128862287Y-140048390D01*
X128854556Y-140037749D01*
X128741971Y-139882786D01*
X128597213Y-139738028D01*
X128431613Y-139617715D01*
X128431612Y-139617714D01*
X128431610Y-139617713D01*
X128374653Y-139588691D01*
X128249223Y-139524781D01*
X128054534Y-139461522D01*
X127859000Y-139430553D01*
X127852352Y-139429500D01*
X127647648Y-139429500D01*
X127641000Y-139430553D01*
X127445465Y-139461522D01*
X127250776Y-139524781D01*
X127068386Y-139617715D01*
X126902786Y-139738028D01*
X126758028Y-139882786D01*
X126637715Y-140048386D01*
X126590485Y-140141080D01*
X126542510Y-140191876D01*
X126474689Y-140208671D01*
X126408554Y-140186134D01*
X126369515Y-140141080D01*
X126366861Y-140135871D01*
X126322287Y-140048390D01*
X126314556Y-140037749D01*
X126201971Y-139882786D01*
X126057213Y-139738028D01*
X125891613Y-139617715D01*
X125891612Y-139617714D01*
X125891610Y-139617713D01*
X125834653Y-139588691D01*
X125709223Y-139524781D01*
X125514534Y-139461522D01*
X125319000Y-139430553D01*
X125312352Y-139429500D01*
X125107648Y-139429500D01*
X125101000Y-139430553D01*
X124905465Y-139461522D01*
X124710776Y-139524781D01*
X124528386Y-139617715D01*
X124362786Y-139738028D01*
X124218028Y-139882786D01*
X124097715Y-140048386D01*
X124050485Y-140141080D01*
X124002510Y-140191876D01*
X123934689Y-140208671D01*
X123868554Y-140186134D01*
X123829515Y-140141080D01*
X123826861Y-140135871D01*
X123782287Y-140048390D01*
X123774556Y-140037749D01*
X123661971Y-139882786D01*
X123517213Y-139738028D01*
X123351613Y-139617715D01*
X123351612Y-139617714D01*
X123351610Y-139617713D01*
X123294653Y-139588691D01*
X123169223Y-139524781D01*
X122974534Y-139461522D01*
X122779000Y-139430553D01*
X122772352Y-139429500D01*
X122567648Y-139429500D01*
X122561000Y-139430553D01*
X122365465Y-139461522D01*
X122170776Y-139524781D01*
X121988386Y-139617715D01*
X121822786Y-139738028D01*
X121678028Y-139882786D01*
X121557715Y-140048386D01*
X121510485Y-140141080D01*
X121462510Y-140191876D01*
X121394689Y-140208671D01*
X121328554Y-140186134D01*
X121289515Y-140141080D01*
X121286861Y-140135871D01*
X121242287Y-140048390D01*
X121234556Y-140037749D01*
X121121971Y-139882786D01*
X120977213Y-139738028D01*
X120811613Y-139617715D01*
X120811612Y-139617714D01*
X120811610Y-139617713D01*
X120754653Y-139588691D01*
X120629223Y-139524781D01*
X120434534Y-139461522D01*
X120239000Y-139430553D01*
X120232352Y-139429500D01*
X120027648Y-139429500D01*
X120021000Y-139430553D01*
X119825465Y-139461522D01*
X119630776Y-139524781D01*
X119448386Y-139617715D01*
X119282786Y-139738028D01*
X119138028Y-139882786D01*
X119017715Y-140048386D01*
X118970485Y-140141080D01*
X118922510Y-140191876D01*
X118854689Y-140208671D01*
X118788554Y-140186134D01*
X118749515Y-140141080D01*
X118746861Y-140135871D01*
X118702287Y-140048390D01*
X118694556Y-140037749D01*
X118581971Y-139882786D01*
X118437213Y-139738028D01*
X118271613Y-139617715D01*
X118271612Y-139617714D01*
X118271610Y-139617713D01*
X118214653Y-139588691D01*
X118089223Y-139524781D01*
X117894534Y-139461522D01*
X117699000Y-139430553D01*
X117692352Y-139429500D01*
X117487648Y-139429500D01*
X117309886Y-139457654D01*
X117240593Y-139448699D01*
X117202808Y-139422862D01*
X112136818Y-134356872D01*
X112103333Y-134295549D01*
X112100499Y-134269191D01*
X112100499Y-133499998D01*
X112100498Y-133499981D01*
X112089999Y-133397203D01*
X112089998Y-133397200D01*
X112042073Y-133252573D01*
X112034814Y-133230666D01*
X111942712Y-133081344D01*
X111942707Y-133081339D01*
X111939209Y-133076915D01*
X111913066Y-133012121D01*
X111926103Y-132943478D01*
X111939209Y-132923085D01*
X111942703Y-132918664D01*
X111942712Y-132918656D01*
X112034814Y-132769334D01*
X112089999Y-132602797D01*
X112100500Y-132500009D01*
X112100499Y-131521228D01*
X112120183Y-131454190D01*
X112172987Y-131408435D01*
X112242146Y-131398491D01*
X112305702Y-131427516D01*
X112312180Y-131433548D01*
X119261586Y-138382954D01*
X119291058Y-138402645D01*
X119335270Y-138432186D01*
X119384505Y-138465084D01*
X119384506Y-138465084D01*
X119384507Y-138465085D01*
X119384509Y-138465086D01*
X119521082Y-138521656D01*
X119521087Y-138521658D01*
X119521091Y-138521658D01*
X119521092Y-138521659D01*
X119666079Y-138550500D01*
X119666082Y-138550500D01*
X119666083Y-138550500D01*
X119813917Y-138550500D01*
X135637770Y-138550500D01*
X135704809Y-138570185D01*
X135725451Y-138586819D01*
X137213181Y-140074548D01*
X137246666Y-140135871D01*
X137249500Y-140162229D01*
X137249500Y-148867769D01*
X137229815Y-148934808D01*
X137213181Y-148955450D01*
X129506555Y-156662075D01*
X129445232Y-156695560D01*
X129399476Y-156696867D01*
X129258259Y-156674500D01*
X129258254Y-156674500D01*
X129041746Y-156674500D01*
X129001282Y-156680909D01*
X128827901Y-156708370D01*
X128621993Y-156775272D01*
X128621990Y-156775273D01*
X128429080Y-156873567D01*
X128329145Y-156946174D01*
X128253922Y-157000828D01*
X128253920Y-157000830D01*
X128253919Y-157000830D01*
X128100830Y-157153919D01*
X128100830Y-157153920D01*
X128100828Y-157153922D01*
X128046174Y-157229145D01*
X127973567Y-157329080D01*
X127875273Y-157521990D01*
X127875272Y-157521993D01*
X127808370Y-157727901D01*
X127774500Y-157941746D01*
X127774500Y-158158253D01*
X127808370Y-158372098D01*
X127875272Y-158578006D01*
X127875273Y-158578009D01*
X127973567Y-158770919D01*
X128100828Y-158946078D01*
X128253922Y-159099172D01*
X128429081Y-159226433D01*
X128523697Y-159274642D01*
X128621990Y-159324726D01*
X128621993Y-159324727D01*
X128724947Y-159358178D01*
X128827903Y-159391630D01*
X129041746Y-159425500D01*
X129041747Y-159425500D01*
X129258253Y-159425500D01*
X129258254Y-159425500D01*
X129472097Y-159391630D01*
X129678009Y-159324726D01*
X129870919Y-159226433D01*
X130046078Y-159099172D01*
X130199172Y-158946078D01*
X130326433Y-158770919D01*
X130424726Y-158578009D01*
X130491630Y-158372097D01*
X130525500Y-158158254D01*
X130525500Y-157941746D01*
X130511335Y-157852315D01*
X130520289Y-157783025D01*
X130546124Y-157745242D01*
X138582951Y-149708416D01*
X138665084Y-149585495D01*
X138721658Y-149448913D01*
X138750500Y-149303918D01*
X138750500Y-149156083D01*
X138750500Y-139726082D01*
X138750500Y-139726079D01*
X138721659Y-139581092D01*
X138721658Y-139581091D01*
X138721658Y-139581087D01*
X138718081Y-139572452D01*
X138665087Y-139444511D01*
X138665080Y-139444498D01*
X138582952Y-139321585D01*
X138540509Y-139279142D01*
X138478416Y-139217049D01*
X136478421Y-137217052D01*
X136478414Y-137217046D01*
X136404729Y-137167812D01*
X136404729Y-137167813D01*
X136355491Y-137134913D01*
X136218917Y-137078343D01*
X136218907Y-137078340D01*
X136073920Y-137049500D01*
X136073918Y-137049500D01*
X120102230Y-137049500D01*
X120035191Y-137029815D01*
X120014549Y-137013181D01*
X117663548Y-134662180D01*
X117630063Y-134600857D01*
X117635047Y-134531165D01*
X117676919Y-134475232D01*
X117742383Y-134450815D01*
X117751229Y-134450499D01*
X118250002Y-134450499D01*
X118250008Y-134450499D01*
X118352797Y-134439999D01*
X118519334Y-134384814D01*
X118668656Y-134292712D01*
X118762675Y-134198692D01*
X118823994Y-134165210D01*
X118893686Y-134170194D01*
X118938034Y-134198695D01*
X119031654Y-134292315D01*
X119180875Y-134384356D01*
X119180880Y-134384358D01*
X119347302Y-134439505D01*
X119347309Y-134439506D01*
X119450019Y-134449999D01*
X119599999Y-134449999D01*
X120100000Y-134449999D01*
X120249972Y-134449999D01*
X120249986Y-134449998D01*
X120352697Y-134439505D01*
X120519119Y-134384358D01*
X120519124Y-134384356D01*
X120668345Y-134292315D01*
X120792315Y-134168345D01*
X120884356Y-134019124D01*
X120884358Y-134019119D01*
X120939505Y-133852697D01*
X120939506Y-133852690D01*
X120949999Y-133749986D01*
X120950000Y-133749973D01*
X120950000Y-133500000D01*
X120100000Y-133500000D01*
X120100000Y-134449999D01*
X119599999Y-134449999D01*
X119600000Y-134449998D01*
X119600000Y-133000000D01*
X120100000Y-133000000D01*
X120949999Y-133000000D01*
X120949999Y-132750028D01*
X120949998Y-132750013D01*
X120939505Y-132647302D01*
X120884358Y-132480880D01*
X120884356Y-132480875D01*
X120792315Y-132331654D01*
X120673342Y-132212681D01*
X120639857Y-132151358D01*
X120644841Y-132081666D01*
X120673342Y-132037319D01*
X120792315Y-131918345D01*
X120884356Y-131769124D01*
X120884358Y-131769119D01*
X120939505Y-131602697D01*
X120939506Y-131602690D01*
X120949999Y-131499986D01*
X120950000Y-131499973D01*
X120950000Y-131250000D01*
X120100000Y-131250000D01*
X120100000Y-133000000D01*
X119600000Y-133000000D01*
X119600000Y-130750000D01*
X120100000Y-130750000D01*
X120949999Y-130750000D01*
X120949999Y-130500028D01*
X120949998Y-130500013D01*
X120939505Y-130397302D01*
X120884358Y-130230880D01*
X120884356Y-130230875D01*
X120792315Y-130081654D01*
X120668345Y-129957684D01*
X120519124Y-129865643D01*
X120519119Y-129865641D01*
X120352697Y-129810494D01*
X120352690Y-129810493D01*
X120249986Y-129800000D01*
X120100000Y-129800000D01*
X120100000Y-130750000D01*
X119600000Y-130750000D01*
X119600000Y-129800000D01*
X119450027Y-129800000D01*
X119450012Y-129800001D01*
X119347302Y-129810494D01*
X119180880Y-129865641D01*
X119180875Y-129865643D01*
X119031657Y-129957682D01*
X118938034Y-130051305D01*
X118876710Y-130084789D01*
X118807019Y-130079805D01*
X118762672Y-130051304D01*
X118668657Y-129957289D01*
X118668656Y-129957288D01*
X118559402Y-129889900D01*
X118512679Y-129837953D01*
X118500500Y-129784362D01*
X118500500Y-126470047D01*
X118520185Y-126403008D01*
X118536819Y-126382366D01*
X118558910Y-126360275D01*
X118581966Y-126337219D01*
X118581968Y-126337215D01*
X118581971Y-126337213D01*
X118702284Y-126171614D01*
X118702286Y-126171611D01*
X118702287Y-126171610D01*
X118749516Y-126078917D01*
X118797489Y-126028123D01*
X118865310Y-126011328D01*
X118931445Y-126033865D01*
X118970485Y-126078919D01*
X119017715Y-126171614D01*
X119138028Y-126337213D01*
X119282786Y-126481971D01*
X119428383Y-126587751D01*
X119448390Y-126602287D01*
X119528453Y-126643081D01*
X119630776Y-126695218D01*
X119630778Y-126695218D01*
X119630781Y-126695220D01*
X119735137Y-126729127D01*
X119825465Y-126758477D01*
X119909564Y-126771797D01*
X120027648Y-126790500D01*
X120027649Y-126790500D01*
X120232351Y-126790500D01*
X120232352Y-126790500D01*
X120434534Y-126758477D01*
X120629219Y-126695220D01*
X120811610Y-126602287D01*
X120955862Y-126497483D01*
X120977213Y-126481971D01*
X120977215Y-126481968D01*
X120977219Y-126481966D01*
X121121966Y-126337219D01*
X121121968Y-126337215D01*
X121121971Y-126337213D01*
X121242284Y-126171614D01*
X121242286Y-126171611D01*
X121242287Y-126171610D01*
X121289516Y-126078917D01*
X121337489Y-126028123D01*
X121405310Y-126011328D01*
X121471445Y-126033865D01*
X121510485Y-126078919D01*
X121557715Y-126171614D01*
X121678028Y-126337213D01*
X121822786Y-126481971D01*
X121968383Y-126587751D01*
X121988390Y-126602287D01*
X122068453Y-126643081D01*
X122170776Y-126695218D01*
X122170778Y-126695218D01*
X122170781Y-126695220D01*
X122275137Y-126729127D01*
X122365465Y-126758477D01*
X122449564Y-126771797D01*
X122567648Y-126790500D01*
X122567649Y-126790500D01*
X122772351Y-126790500D01*
X122772352Y-126790500D01*
X122974534Y-126758477D01*
X123169219Y-126695220D01*
X123351610Y-126602287D01*
X123495862Y-126497483D01*
X123517213Y-126481971D01*
X123517215Y-126481968D01*
X123517219Y-126481966D01*
X123661966Y-126337219D01*
X123661968Y-126337215D01*
X123661971Y-126337213D01*
X123782284Y-126171614D01*
X123782286Y-126171611D01*
X123782287Y-126171610D01*
X123829516Y-126078917D01*
X123877489Y-126028123D01*
X123945310Y-126011328D01*
X124011445Y-126033865D01*
X124050485Y-126078919D01*
X124097715Y-126171614D01*
X124218028Y-126337213D01*
X124362786Y-126481971D01*
X124508383Y-126587751D01*
X124528390Y-126602287D01*
X124608453Y-126643081D01*
X124710776Y-126695218D01*
X124710778Y-126695218D01*
X124710781Y-126695220D01*
X124815137Y-126729127D01*
X124905465Y-126758477D01*
X124989564Y-126771797D01*
X125107648Y-126790500D01*
X125107649Y-126790500D01*
X125312351Y-126790500D01*
X125312352Y-126790500D01*
X125514534Y-126758477D01*
X125709219Y-126695220D01*
X125891610Y-126602287D01*
X126035862Y-126497483D01*
X126057213Y-126481971D01*
X126057215Y-126481968D01*
X126057219Y-126481966D01*
X126201966Y-126337219D01*
X126201968Y-126337215D01*
X126201971Y-126337213D01*
X126322284Y-126171614D01*
X126322286Y-126171611D01*
X126322287Y-126171610D01*
X126369516Y-126078917D01*
X126417489Y-126028123D01*
X126485310Y-126011328D01*
X126551445Y-126033865D01*
X126590485Y-126078919D01*
X126637715Y-126171614D01*
X126758028Y-126337213D01*
X126902786Y-126481971D01*
X127048383Y-126587751D01*
X127068390Y-126602287D01*
X127148453Y-126643081D01*
X127250776Y-126695218D01*
X127250778Y-126695218D01*
X127250781Y-126695220D01*
X127355137Y-126729127D01*
X127445465Y-126758477D01*
X127529564Y-126771797D01*
X127647648Y-126790500D01*
X127647649Y-126790500D01*
X127852351Y-126790500D01*
X127852352Y-126790500D01*
X128054534Y-126758477D01*
X128249219Y-126695220D01*
X128431610Y-126602287D01*
X128575862Y-126497483D01*
X128597213Y-126481971D01*
X128597215Y-126481968D01*
X128597219Y-126481966D01*
X128741966Y-126337219D01*
X128741968Y-126337215D01*
X128741971Y-126337213D01*
X128862284Y-126171614D01*
X128862286Y-126171611D01*
X128862287Y-126171610D01*
X128909516Y-126078917D01*
X128957489Y-126028123D01*
X129025310Y-126011328D01*
X129091445Y-126033865D01*
X129130485Y-126078919D01*
X129177715Y-126171614D01*
X129298028Y-126337213D01*
X129442786Y-126481971D01*
X129588383Y-126587751D01*
X129608390Y-126602287D01*
X129688453Y-126643081D01*
X129790776Y-126695218D01*
X129790778Y-126695218D01*
X129790781Y-126695220D01*
X129895137Y-126729127D01*
X129985465Y-126758477D01*
X130069564Y-126771797D01*
X130187648Y-126790500D01*
X130187649Y-126790500D01*
X130392351Y-126790500D01*
X130392352Y-126790500D01*
X130594534Y-126758477D01*
X130789219Y-126695220D01*
X130971610Y-126602287D01*
X131115862Y-126497483D01*
X131137213Y-126481971D01*
X131137215Y-126481968D01*
X131137219Y-126481966D01*
X131281966Y-126337219D01*
X131281968Y-126337215D01*
X131281971Y-126337213D01*
X131402284Y-126171614D01*
X131402286Y-126171611D01*
X131402287Y-126171610D01*
X131449795Y-126078369D01*
X131497770Y-126027574D01*
X131565591Y-126010779D01*
X131631725Y-126033316D01*
X131670765Y-126078370D01*
X131718140Y-126171349D01*
X131838417Y-126336894D01*
X131838417Y-126336895D01*
X131983104Y-126481582D01*
X132148650Y-126601859D01*
X132330968Y-126694754D01*
X132525578Y-126757988D01*
X132580000Y-126766607D01*
X132580000Y-125923012D01*
X132637007Y-125955925D01*
X132764174Y-125990000D01*
X132895826Y-125990000D01*
X133022993Y-125955925D01*
X133080000Y-125923012D01*
X133080000Y-126766606D01*
X133134421Y-126757988D01*
X133329031Y-126694754D01*
X133511349Y-126601859D01*
X133676894Y-126481582D01*
X133676895Y-126481582D01*
X133821582Y-126336895D01*
X133821582Y-126336894D01*
X133941861Y-126171347D01*
X133989234Y-126078371D01*
X134037208Y-126027575D01*
X134105028Y-126010779D01*
X134171164Y-126033316D01*
X134210203Y-126078369D01*
X134257713Y-126171611D01*
X134378028Y-126337213D01*
X134522786Y-126481971D01*
X134668383Y-126587751D01*
X134688390Y-126602287D01*
X134768453Y-126643081D01*
X134870776Y-126695218D01*
X134870778Y-126695218D01*
X134870781Y-126695220D01*
X134975137Y-126729127D01*
X135065465Y-126758477D01*
X135149564Y-126771797D01*
X135267648Y-126790500D01*
X135267649Y-126790500D01*
X135472351Y-126790500D01*
X135472352Y-126790500D01*
X135674534Y-126758477D01*
X135869219Y-126695220D01*
X136051610Y-126602287D01*
X136195862Y-126497483D01*
X136217213Y-126481971D01*
X136217215Y-126481968D01*
X136217219Y-126481966D01*
X136361966Y-126337219D01*
X136361968Y-126337215D01*
X136361971Y-126337213D01*
X136414732Y-126264590D01*
X136482287Y-126171610D01*
X136575220Y-125989219D01*
X136638477Y-125794534D01*
X136670500Y-125592352D01*
X136670500Y-125387648D01*
X136638477Y-125185466D01*
X136637673Y-125182993D01*
X136575218Y-124990776D01*
X136529515Y-124901080D01*
X136482287Y-124808390D01*
X136474556Y-124797749D01*
X136361971Y-124642786D01*
X136217213Y-124498028D01*
X136051613Y-124377715D01*
X136051612Y-124377714D01*
X136051610Y-124377713D01*
X135980499Y-124341480D01*
X135869223Y-124284781D01*
X135674534Y-124221522D01*
X135499995Y-124193878D01*
X135472352Y-124189500D01*
X135267648Y-124189500D01*
X135243329Y-124193351D01*
X135065465Y-124221522D01*
X134870776Y-124284781D01*
X134688386Y-124377715D01*
X134522786Y-124498028D01*
X134378028Y-124642786D01*
X134257713Y-124808388D01*
X134210203Y-124901630D01*
X134162228Y-124952426D01*
X134094407Y-124969220D01*
X134028272Y-124946682D01*
X133989234Y-124901628D01*
X133941861Y-124808652D01*
X133821582Y-124643105D01*
X133821582Y-124643104D01*
X133676895Y-124498417D01*
X133511349Y-124378140D01*
X133329029Y-124285244D01*
X133134413Y-124222009D01*
X133080000Y-124213390D01*
X133080000Y-125056988D01*
X133022993Y-125024075D01*
X132895826Y-124990000D01*
X132764174Y-124990000D01*
X132637007Y-125024075D01*
X132580000Y-125056988D01*
X132580000Y-124213390D01*
X132525586Y-124222009D01*
X132330970Y-124285244D01*
X132148650Y-124378140D01*
X131983105Y-124498417D01*
X131983104Y-124498417D01*
X131838417Y-124643104D01*
X131838417Y-124643105D01*
X131718140Y-124808650D01*
X131670765Y-124901629D01*
X131622790Y-124952425D01*
X131554969Y-124969220D01*
X131488834Y-124946682D01*
X131449795Y-124901629D01*
X131438990Y-124880424D01*
X131402287Y-124808390D01*
X131394556Y-124797749D01*
X131281971Y-124642786D01*
X131137213Y-124498028D01*
X130971613Y-124377715D01*
X130971612Y-124377714D01*
X130971610Y-124377713D01*
X130900499Y-124341480D01*
X130789223Y-124284781D01*
X130594534Y-124221522D01*
X130419995Y-124193878D01*
X130392352Y-124189500D01*
X130187648Y-124189500D01*
X130163329Y-124193351D01*
X129985465Y-124221522D01*
X129790776Y-124284781D01*
X129608386Y-124377715D01*
X129442786Y-124498028D01*
X129298028Y-124642786D01*
X129177715Y-124808386D01*
X129130485Y-124901080D01*
X129082510Y-124951876D01*
X129014689Y-124968671D01*
X128948554Y-124946134D01*
X128909515Y-124901080D01*
X128908883Y-124899840D01*
X128862287Y-124808390D01*
X128854556Y-124797749D01*
X128741971Y-124642786D01*
X128597213Y-124498028D01*
X128431613Y-124377715D01*
X128431612Y-124377714D01*
X128431610Y-124377713D01*
X128360499Y-124341480D01*
X128249223Y-124284781D01*
X128054534Y-124221522D01*
X127879995Y-124193878D01*
X127852352Y-124189500D01*
X127647648Y-124189500D01*
X127623329Y-124193351D01*
X127445465Y-124221522D01*
X127250776Y-124284781D01*
X127068386Y-124377715D01*
X126902786Y-124498028D01*
X126758028Y-124642786D01*
X126637715Y-124808386D01*
X126590485Y-124901080D01*
X126542510Y-124951876D01*
X126474689Y-124968671D01*
X126408554Y-124946134D01*
X126369515Y-124901080D01*
X126368883Y-124899840D01*
X126322287Y-124808390D01*
X126314556Y-124797749D01*
X126201971Y-124642786D01*
X126057213Y-124498028D01*
X125891613Y-124377715D01*
X125891612Y-124377714D01*
X125891610Y-124377713D01*
X125820499Y-124341480D01*
X125709223Y-124284781D01*
X125514534Y-124221522D01*
X125339995Y-124193878D01*
X125312352Y-124189500D01*
X125107648Y-124189500D01*
X125083329Y-124193351D01*
X124905465Y-124221522D01*
X124710776Y-124284781D01*
X124528386Y-124377715D01*
X124362786Y-124498028D01*
X124218028Y-124642786D01*
X124097715Y-124808386D01*
X124050485Y-124901080D01*
X124002510Y-124951876D01*
X123934689Y-124968671D01*
X123868554Y-124946134D01*
X123829515Y-124901080D01*
X123828883Y-124899840D01*
X123782287Y-124808390D01*
X123774556Y-124797749D01*
X123661971Y-124642786D01*
X123517213Y-124498028D01*
X123351613Y-124377715D01*
X123351612Y-124377714D01*
X123351610Y-124377713D01*
X123280499Y-124341480D01*
X123169223Y-124284781D01*
X122974534Y-124221522D01*
X122799995Y-124193878D01*
X122772352Y-124189500D01*
X122567648Y-124189500D01*
X122543329Y-124193351D01*
X122365465Y-124221522D01*
X122170776Y-124284781D01*
X121988386Y-124377715D01*
X121822786Y-124498028D01*
X121678028Y-124642786D01*
X121557715Y-124808386D01*
X121510485Y-124901080D01*
X121462510Y-124951876D01*
X121394689Y-124968671D01*
X121328554Y-124946134D01*
X121289515Y-124901080D01*
X121288883Y-124899840D01*
X121242287Y-124808390D01*
X121234556Y-124797749D01*
X121121971Y-124642786D01*
X120977213Y-124498028D01*
X120811613Y-124377715D01*
X120811612Y-124377714D01*
X120811610Y-124377713D01*
X120740499Y-124341480D01*
X120629223Y-124284781D01*
X120434534Y-124221522D01*
X120259995Y-124193878D01*
X120232352Y-124189500D01*
X120027648Y-124189500D01*
X120003329Y-124193351D01*
X119825465Y-124221522D01*
X119630776Y-124284781D01*
X119448386Y-124377715D01*
X119282786Y-124498028D01*
X119138028Y-124642786D01*
X119017715Y-124808386D01*
X118970485Y-124901080D01*
X118922510Y-124951876D01*
X118854689Y-124968671D01*
X118788554Y-124946134D01*
X118749515Y-124901080D01*
X118748883Y-124899840D01*
X118702287Y-124808390D01*
X118694556Y-124797749D01*
X118581971Y-124642786D01*
X118437213Y-124498028D01*
X118271613Y-124377715D01*
X118271612Y-124377714D01*
X118271610Y-124377713D01*
X118200499Y-124341480D01*
X118089223Y-124284781D01*
X117894534Y-124221522D01*
X117719995Y-124193878D01*
X117692352Y-124189500D01*
X117487648Y-124189500D01*
X117463329Y-124193351D01*
X117285465Y-124221522D01*
X117090776Y-124284781D01*
X116908386Y-124377715D01*
X116742786Y-124498028D01*
X116598028Y-124642786D01*
X116477715Y-124808386D01*
X116430485Y-124901080D01*
X116382510Y-124951876D01*
X116314689Y-124968671D01*
X116248554Y-124946134D01*
X116209515Y-124901080D01*
X116208883Y-124899840D01*
X116162287Y-124808390D01*
X116154556Y-124797749D01*
X116041971Y-124642786D01*
X115897213Y-124498028D01*
X115731613Y-124377714D01*
X115728203Y-124375977D01*
X115677408Y-124328001D01*
X115660500Y-124265493D01*
X115660500Y-123444935D01*
X115680185Y-123377896D01*
X115681366Y-123376090D01*
X115719394Y-123319179D01*
X115779737Y-123173497D01*
X115810500Y-123018842D01*
X115810500Y-122861158D01*
X115810500Y-122861155D01*
X115810499Y-122861153D01*
X115779738Y-122706510D01*
X115779737Y-122706503D01*
X115749721Y-122634037D01*
X115719397Y-122560827D01*
X115719390Y-122560814D01*
X115631789Y-122429711D01*
X115631786Y-122429707D01*
X115520292Y-122318213D01*
X115520288Y-122318210D01*
X115389185Y-122230609D01*
X115389172Y-122230602D01*
X115243501Y-122170264D01*
X115243489Y-122170261D01*
X115088845Y-122139500D01*
X115088842Y-122139500D01*
X114931158Y-122139500D01*
X114931155Y-122139500D01*
X114776510Y-122170261D01*
X114776498Y-122170264D01*
X114630827Y-122230602D01*
X114630814Y-122230609D01*
X114499711Y-122318210D01*
X114499707Y-122318213D01*
X114388213Y-122429707D01*
X114388210Y-122429711D01*
X114300609Y-122560814D01*
X114300602Y-122560827D01*
X114240264Y-122706498D01*
X114240261Y-122706510D01*
X114209500Y-122861153D01*
X114209500Y-123018846D01*
X114240261Y-123173489D01*
X114240264Y-123173501D01*
X114300602Y-123319172D01*
X114300609Y-123319185D01*
X114388210Y-123450288D01*
X114388213Y-123450292D01*
X114423180Y-123485258D01*
X114456666Y-123546580D01*
X114459500Y-123572940D01*
X114459500Y-124255302D01*
X114439815Y-124322341D01*
X114391797Y-124365786D01*
X114368386Y-124377714D01*
X114202786Y-124498028D01*
X114058028Y-124642786D01*
X113937715Y-124808386D01*
X113890485Y-124901080D01*
X113842510Y-124951876D01*
X113774689Y-124968671D01*
X113708554Y-124946134D01*
X113669515Y-124901080D01*
X113668883Y-124899840D01*
X113622287Y-124808390D01*
X113614556Y-124797749D01*
X113501971Y-124642786D01*
X113357213Y-124498028D01*
X113191613Y-124377715D01*
X113191612Y-124377714D01*
X113191610Y-124377713D01*
X113120499Y-124341480D01*
X113009223Y-124284781D01*
X112814534Y-124221522D01*
X112639995Y-124193878D01*
X112612352Y-124189500D01*
X112407648Y-124189500D01*
X112383329Y-124193351D01*
X112205465Y-124221522D01*
X112010776Y-124284781D01*
X111828386Y-124377715D01*
X111662786Y-124498028D01*
X111518028Y-124642786D01*
X111397715Y-124808386D01*
X111350485Y-124901080D01*
X111302510Y-124951876D01*
X111234689Y-124968671D01*
X111168554Y-124946134D01*
X111129515Y-124901080D01*
X111128883Y-124899840D01*
X111082287Y-124808390D01*
X111074556Y-124797749D01*
X110961971Y-124642786D01*
X110817213Y-124498028D01*
X110651613Y-124377715D01*
X110651612Y-124377714D01*
X110651610Y-124377713D01*
X110580499Y-124341480D01*
X110469223Y-124284781D01*
X110274534Y-124221522D01*
X110099995Y-124193878D01*
X110072352Y-124189500D01*
X109867648Y-124189500D01*
X109843329Y-124193351D01*
X109665465Y-124221522D01*
X109470776Y-124284781D01*
X109288386Y-124377715D01*
X109122786Y-124498028D01*
X108978028Y-124642786D01*
X108857715Y-124808386D01*
X108810485Y-124901080D01*
X108762510Y-124951876D01*
X108694689Y-124968671D01*
X108628554Y-124946134D01*
X108589515Y-124901080D01*
X108588883Y-124899840D01*
X108542287Y-124808390D01*
X108534556Y-124797749D01*
X108421971Y-124642786D01*
X108277213Y-124498028D01*
X108111613Y-124377715D01*
X108111612Y-124377714D01*
X108111610Y-124377713D01*
X108040499Y-124341480D01*
X107929223Y-124284781D01*
X107734534Y-124221522D01*
X107559995Y-124193878D01*
X107532352Y-124189500D01*
X107327648Y-124189500D01*
X107303329Y-124193351D01*
X107125465Y-124221522D01*
X106930776Y-124284781D01*
X106748386Y-124377715D01*
X106582786Y-124498028D01*
X106438028Y-124642786D01*
X106317715Y-124808386D01*
X106270485Y-124901080D01*
X106222510Y-124951876D01*
X106154689Y-124968671D01*
X106088554Y-124946134D01*
X106049515Y-124901080D01*
X106048883Y-124899840D01*
X106002287Y-124808390D01*
X105994556Y-124797749D01*
X105881971Y-124642786D01*
X105737213Y-124498028D01*
X105571613Y-124377715D01*
X105571612Y-124377714D01*
X105571610Y-124377713D01*
X105500499Y-124341480D01*
X105389223Y-124284781D01*
X105194534Y-124221522D01*
X105019995Y-124193878D01*
X104992352Y-124189500D01*
X104787648Y-124189500D01*
X104763329Y-124193351D01*
X104585465Y-124221522D01*
X104390776Y-124284781D01*
X104208386Y-124377715D01*
X104056176Y-124488301D01*
X103990369Y-124511781D01*
X103922316Y-124495955D01*
X103895610Y-124475664D01*
X98748918Y-119328972D01*
X98715433Y-119267649D01*
X98720417Y-119197957D01*
X98762289Y-119142024D01*
X98827753Y-119117607D01*
X98836210Y-119117292D01*
X141375166Y-119001697D01*
X141442256Y-119021200D01*
G37*
%TD.AperFunction*%
%TD*%
%TA.AperFunction,NonConductor*%
G36*
X75579197Y-120540651D02*
G01*
X75599839Y-120557285D01*
X75738181Y-120695627D01*
X75771666Y-120756950D01*
X75774500Y-120783308D01*
X75774500Y-121425001D01*
X75774501Y-121425019D01*
X75785000Y-121527796D01*
X75785001Y-121527799D01*
X75840185Y-121694331D01*
X75840189Y-121694340D01*
X75886489Y-121769404D01*
X75904929Y-121836796D01*
X75884006Y-121903460D01*
X75830364Y-121948229D01*
X75780950Y-121958500D01*
X74976197Y-121958500D01*
X74909158Y-121938815D01*
X74888516Y-121922181D01*
X74362819Y-121396484D01*
X74329334Y-121335161D01*
X74326500Y-121308803D01*
X74326500Y-120813210D01*
X74326500Y-120803211D01*
X74326501Y-120803209D01*
X74326501Y-120645095D01*
X74326500Y-120645094D01*
X74326501Y-120644965D01*
X74346186Y-120577926D01*
X74398990Y-120532171D01*
X74399003Y-120532169D01*
X74450501Y-120520966D01*
X75512158Y-120520966D01*
X75579197Y-120540651D01*
G37*
%TD.AperFunction*%
%TA.AperFunction,NonConductor*%
G36*
X79760942Y-123179185D02*
G01*
X79781584Y-123195819D01*
X80563583Y-123977819D01*
X80597068Y-124039142D01*
X80592084Y-124108834D01*
X80550212Y-124164767D01*
X80484748Y-124189184D01*
X80475902Y-124189500D01*
X80328713Y-124189500D01*
X80300006Y-124194046D01*
X80118757Y-124222753D01*
X80076473Y-124236492D01*
X80006632Y-124238486D01*
X79950476Y-124206241D01*
X79115416Y-123371181D01*
X79081931Y-123309858D01*
X79086915Y-123240166D01*
X79128787Y-123184233D01*
X79194251Y-123159816D01*
X79203097Y-123159500D01*
X79693903Y-123159500D01*
X79760942Y-123179185D01*
G37*
%TD.AperFunction*%
%TA.AperFunction,NonConductor*%
G36*
X113851445Y-126033865D02*
G01*
X113890485Y-126078919D01*
X113937715Y-126171614D01*
X114058028Y-126337213D01*
X114202784Y-126481969D01*
X114224138Y-126497483D01*
X114348385Y-126587753D01*
X114391051Y-126643081D01*
X114399500Y-126688070D01*
X114399500Y-131098770D01*
X114379815Y-131165809D01*
X114327011Y-131211564D01*
X114257853Y-131221508D01*
X114194297Y-131192483D01*
X114187819Y-131186451D01*
X110002301Y-127000933D01*
X109968816Y-126939610D01*
X109973800Y-126869918D01*
X110015672Y-126813985D01*
X110070584Y-126790779D01*
X110072346Y-126790500D01*
X110072352Y-126790500D01*
X110274534Y-126758477D01*
X110469219Y-126695220D01*
X110651610Y-126602287D01*
X110795862Y-126497483D01*
X110817213Y-126481971D01*
X110817215Y-126481968D01*
X110817219Y-126481966D01*
X110961966Y-126337219D01*
X110961968Y-126337215D01*
X110961971Y-126337213D01*
X111082284Y-126171614D01*
X111082286Y-126171611D01*
X111082287Y-126171610D01*
X111129516Y-126078917D01*
X111177489Y-126028123D01*
X111245310Y-126011328D01*
X111311445Y-126033865D01*
X111350485Y-126078919D01*
X111397715Y-126171614D01*
X111518028Y-126337213D01*
X111662786Y-126481971D01*
X111808383Y-126587751D01*
X111828390Y-126602287D01*
X111908453Y-126643081D01*
X112010776Y-126695218D01*
X112010778Y-126695218D01*
X112010781Y-126695220D01*
X112115137Y-126729127D01*
X112205465Y-126758477D01*
X112289564Y-126771797D01*
X112407648Y-126790500D01*
X112407649Y-126790500D01*
X112612351Y-126790500D01*
X112612352Y-126790500D01*
X112814534Y-126758477D01*
X113009219Y-126695220D01*
X113191610Y-126602287D01*
X113335862Y-126497483D01*
X113357213Y-126481971D01*
X113357215Y-126481968D01*
X113357219Y-126481966D01*
X113501966Y-126337219D01*
X113501968Y-126337215D01*
X113501971Y-126337213D01*
X113622284Y-126171614D01*
X113622286Y-126171611D01*
X113622287Y-126171610D01*
X113669516Y-126078917D01*
X113717489Y-126028123D01*
X113785310Y-126011328D01*
X113851445Y-126033865D01*
G37*
%TD.AperFunction*%
%TA.AperFunction,NonConductor*%
G36*
X116391445Y-126033865D02*
G01*
X116430485Y-126078919D01*
X116477715Y-126171614D01*
X116598028Y-126337213D01*
X116742786Y-126481971D01*
X116888383Y-126587751D01*
X116908390Y-126602287D01*
X117090781Y-126695220D01*
X117113816Y-126702704D01*
X117171492Y-126742141D01*
X117198691Y-126806499D01*
X117199500Y-126820636D01*
X117199500Y-129784362D01*
X117179815Y-129851401D01*
X117140598Y-129889899D01*
X117072288Y-129932033D01*
X117031342Y-129957289D01*
X116907289Y-130081342D01*
X116815187Y-130230663D01*
X116815185Y-130230668D01*
X116815115Y-130230880D01*
X116760001Y-130397203D01*
X116760001Y-130397204D01*
X116760000Y-130397204D01*
X116749500Y-130499983D01*
X116749500Y-131500001D01*
X116749502Y-131500024D01*
X116751574Y-131520309D01*
X116738803Y-131589001D01*
X116690922Y-131639885D01*
X116623132Y-131656804D01*
X116556956Y-131634387D01*
X116540535Y-131620589D01*
X115736819Y-130816873D01*
X115703334Y-130755550D01*
X115700500Y-130729192D01*
X115700500Y-126688070D01*
X115720185Y-126621031D01*
X115751613Y-126587753D01*
X115897219Y-126481966D01*
X116041966Y-126337219D01*
X116041968Y-126337215D01*
X116041971Y-126337213D01*
X116162284Y-126171614D01*
X116162286Y-126171611D01*
X116162287Y-126171610D01*
X116209516Y-126078917D01*
X116257489Y-126028123D01*
X116325310Y-126011328D01*
X116391445Y-126033865D01*
G37*
%TD.AperFunction*%
%TA.AperFunction,NonConductor*%
G36*
X106177227Y-126015389D02*
G01*
X106189808Y-126014850D01*
X106209673Y-126026445D01*
X106231445Y-126033865D01*
X106240719Y-126044568D01*
X106250150Y-126050073D01*
X106270485Y-126078919D01*
X106317715Y-126171614D01*
X106438028Y-126337213D01*
X106582786Y-126481971D01*
X106728383Y-126587751D01*
X106748390Y-126602287D01*
X106828453Y-126643081D01*
X106930776Y-126695218D01*
X106930778Y-126695218D01*
X106930781Y-126695220D01*
X107035137Y-126729127D01*
X107125465Y-126758477D01*
X107209564Y-126771797D01*
X107327648Y-126790500D01*
X107327649Y-126790500D01*
X107532350Y-126790500D01*
X107532352Y-126790500D01*
X107588026Y-126781681D01*
X107657318Y-126790635D01*
X107695105Y-126816473D01*
X111466451Y-130587819D01*
X111499936Y-130649142D01*
X111494952Y-130718834D01*
X111453080Y-130774767D01*
X111387616Y-130799184D01*
X111378770Y-130799500D01*
X110649998Y-130799500D01*
X110649980Y-130799501D01*
X110547203Y-130810000D01*
X110547200Y-130810001D01*
X110380668Y-130865185D01*
X110380663Y-130865187D01*
X110231342Y-130957289D01*
X110107285Y-131081346D01*
X110105537Y-131084182D01*
X110103829Y-131085717D01*
X110102807Y-131087011D01*
X110102585Y-131086836D01*
X110053589Y-131130905D01*
X109984626Y-131142126D01*
X109920544Y-131114282D01*
X109894463Y-131084182D01*
X109892714Y-131081346D01*
X109768657Y-130957289D01*
X109768656Y-130957288D01*
X109628470Y-130870821D01*
X109619336Y-130865187D01*
X109619331Y-130865185D01*
X109617862Y-130864698D01*
X109452797Y-130810001D01*
X109452795Y-130810000D01*
X109350010Y-130799500D01*
X108599998Y-130799500D01*
X108599980Y-130799501D01*
X108498009Y-130809918D01*
X108429316Y-130797148D01*
X108382305Y-130755449D01*
X108371790Y-130739712D01*
X108371786Y-130739707D01*
X108260292Y-130628213D01*
X108260288Y-130628210D01*
X108129185Y-130540609D01*
X108129172Y-130540602D01*
X107983501Y-130480264D01*
X107983489Y-130480261D01*
X107828845Y-130449500D01*
X107828842Y-130449500D01*
X107671158Y-130449500D01*
X107671155Y-130449500D01*
X107516510Y-130480261D01*
X107516498Y-130480264D01*
X107370827Y-130540602D01*
X107370814Y-130540609D01*
X107239711Y-130628210D01*
X107239707Y-130628213D01*
X107128213Y-130739707D01*
X107128210Y-130739711D01*
X107040609Y-130870814D01*
X107040602Y-130870827D01*
X106980264Y-131016498D01*
X106980261Y-131016508D01*
X106966920Y-131083578D01*
X106958155Y-131100333D01*
X106954136Y-131118811D01*
X106935390Y-131143854D01*
X106934535Y-131145489D01*
X106932986Y-131147066D01*
X106866874Y-131213180D01*
X106805551Y-131246666D01*
X106779191Y-131249500D01*
X106484298Y-131249500D01*
X106447432Y-131252401D01*
X106447426Y-131252402D01*
X106289606Y-131298254D01*
X106289603Y-131298255D01*
X106148137Y-131381917D01*
X106148129Y-131381923D01*
X106031923Y-131498129D01*
X106031917Y-131498137D01*
X105948255Y-131639603D01*
X105948254Y-131639606D01*
X105902402Y-131797426D01*
X105902401Y-131797432D01*
X105899500Y-131834298D01*
X105899500Y-132075500D01*
X105879815Y-132142539D01*
X105827011Y-132188294D01*
X105775500Y-132199500D01*
X105433308Y-132199500D01*
X105366269Y-132179815D01*
X105345627Y-132163181D01*
X104425819Y-131243373D01*
X104392334Y-131182050D01*
X104389500Y-131155692D01*
X104389500Y-126865475D01*
X104409185Y-126798436D01*
X104461989Y-126752681D01*
X104531147Y-126742737D01*
X104551820Y-126747545D01*
X104585458Y-126758475D01*
X104585461Y-126758475D01*
X104585466Y-126758477D01*
X104787648Y-126790500D01*
X104787649Y-126790500D01*
X104992351Y-126790500D01*
X104992352Y-126790500D01*
X105194534Y-126758477D01*
X105389219Y-126695220D01*
X105571610Y-126602287D01*
X105715862Y-126497483D01*
X105737213Y-126481971D01*
X105737215Y-126481968D01*
X105737219Y-126481966D01*
X105881966Y-126337219D01*
X105881968Y-126337215D01*
X105881971Y-126337213D01*
X106002284Y-126171614D01*
X106002286Y-126171611D01*
X106002287Y-126171610D01*
X106049516Y-126078917D01*
X106058161Y-126069764D01*
X106062896Y-126058099D01*
X106081693Y-126044847D01*
X106097489Y-126028123D01*
X106109711Y-126025096D01*
X106120002Y-126017842D01*
X106142982Y-126016856D01*
X106165310Y-126011328D01*
X106177227Y-126015389D01*
G37*
%TD.AperFunction*%
%TA.AperFunction,NonConductor*%
G36*
X107964475Y-132828320D02*
G01*
X108023145Y-132866261D01*
X108034741Y-132882101D01*
X108057286Y-132918654D01*
X108060795Y-132923091D01*
X108069790Y-132945390D01*
X108082686Y-132965689D01*
X108082625Y-132977206D01*
X108086934Y-132987887D01*
X108082445Y-133011511D01*
X108082319Y-133035558D01*
X108075322Y-133048998D01*
X108073892Y-133056529D01*
X108067490Y-133067585D01*
X108060881Y-133077750D01*
X108057288Y-133081344D01*
X108033985Y-133119122D01*
X108033164Y-133120387D01*
X108007703Y-133142216D01*
X107982790Y-133164624D01*
X107981282Y-133164869D01*
X107980121Y-133165865D01*
X107946890Y-133170465D01*
X107913827Y-133175845D01*
X107911499Y-133175364D01*
X107910911Y-133175446D01*
X107910120Y-133175080D01*
X107894606Y-133171878D01*
X107827573Y-133152402D01*
X107827567Y-133152401D01*
X107790701Y-133149500D01*
X107790694Y-133149500D01*
X106624500Y-133149500D01*
X106615814Y-133146949D01*
X106606853Y-133148238D01*
X106582812Y-133137259D01*
X106557461Y-133129815D01*
X106551533Y-133122974D01*
X106543297Y-133119213D01*
X106529007Y-133096978D01*
X106511706Y-133077011D01*
X106509418Y-133066496D01*
X106505523Y-133060435D01*
X106500500Y-133025500D01*
X106500500Y-132974500D01*
X106520185Y-132907461D01*
X106572989Y-132861706D01*
X106624500Y-132850500D01*
X107790686Y-132850500D01*
X107790694Y-132850500D01*
X107827569Y-132847598D01*
X107894607Y-132828121D01*
X107964475Y-132828320D01*
G37*
%TD.AperFunction*%
M02*
