M48
; DRILL file {KiCad 9.0.7-9.0.7~ubuntu24.04.1} date 2026-02-20T17:30:39+0100
; FORMAT={-:-/ absolute / metric / decimal}
; #@! TF.CreationDate,2026-02-20T17:30:39+01:00
; #@! TF.GenerationSoftware,Kicad,Pcbnew,9.0.7-9.0.7~ubuntu24.04.1
; #@! TF.FileFunction,Plated,1,2,PTH
FMAT,2
METRIC
; #@! TA.AperFunction,Plated,PTH,ViaDrill
T1C0.300
; #@! TA.AperFunction,Plated,PTH,ComponentDrill
T2C1.000
; #@! TA.AperFunction,Plated,PTH,ComponentDrill
T3C1.200
; #@! TA.AperFunction,Plated,PTH,ComponentDrill
T4C1.300
; #@! TA.AperFunction,Plated,PTH,ComponentDrill
T5C1.600
; #@! TA.AperFunction,Plated,PTH,ComponentDrill
T6C1.700
%
G90
G05
T1
X57.5Y-149.5
X72.75Y-119.87
X75.5Y-97.25
X77.0Y-109.75
X83.5Y-108.0
X107.75Y-131.25
X115.01Y-122.94
X119.25Y-109.0
X126.25Y-104.0
T2
X75.355Y-125.54
X77.895Y-125.54
X80.435Y-125.54
X82.975Y-125.54
X99.81Y-125.49
X99.81Y-140.73
X102.35Y-125.49
X102.35Y-140.73
X104.89Y-125.49
X104.89Y-140.73
X107.43Y-125.49
X107.43Y-140.73
X109.97Y-125.49
X109.97Y-140.73
X112.51Y-125.49
X112.51Y-140.73
X115.05Y-125.49
X115.05Y-140.73
X117.59Y-125.49
X117.59Y-140.73
X120.13Y-125.49
X120.13Y-140.73
X122.67Y-125.49
X122.67Y-140.73
X125.21Y-125.49
X125.21Y-140.73
X127.75Y-125.49
X127.75Y-140.73
X130.29Y-125.49
X130.29Y-140.73
X132.83Y-125.49
X132.83Y-140.73
X135.37Y-125.49
X135.37Y-140.73
T3
X70.65Y-158.05
X70.65Y-161.55
X129.15Y-158.05
T4
X54.0Y-98.75
X54.0Y-103.75
X138.25Y-98.75
X138.25Y-103.75
T5
X55.5Y-87.0
X55.5Y-115.0
X136.5Y-87.0
X136.5Y-115.0
T6
X74.8Y-164.0
X76.0Y-155.6
X123.8Y-155.6
X125.0Y-164.0
M30
